<?xml version="1.0" encoding="utf-8"?>
<!-- Generator: Adobe Illustrator 16.0.0, SVG Export Plug-In . SVG Version: 6.00 Build 0)  -->
<!DOCTYPE svg PUBLIC "-//W3C//DTD SVG 1.1//EN" "http://www.w3.org/Graphics/SVG/1.1/DTD/svg11.dtd">
<svg version="1.1" id="Layer_1" xmlns="http://www.w3.org/2000/svg" xmlns:xlink="http://www.w3.org/1999/xlink" x="0px" y="0px"
	 width="1200px" height="1200px" viewBox="0 0 1200 1200" enable-background="new 0 0 1200 1200" xml:space="preserve">
<g id="XMLID_1_">
	<g>
		<rect x="1099.5" y="700.5" width="100" height="100"/>
		<rect x="1099.5" y="600.5" width="100" height="100"/>
		<rect x="1099.5" y="500.5" width="100" height="100"/>
		<rect x="1099.5" y="400.5" width="100" height="100"/>
		<rect x="999.5" y="900.5" width="100" height="100"/>
		<rect x="999.5" y="800.5" width="100" height="100"/>
		<rect x="999.5" y="700.5" fill="#BF8A64" width="100" height="100"/>
		<rect x="999.5" y="600.5" fill="#BF8A64" width="100" height="100"/>
		<rect x="999.5" y="500.5" fill="#BF8A64" width="100" height="100"/>
		<rect x="999.5" y="400.5" fill="#BF8A64" width="100" height="100"/>
		<rect x="999.5" y="300.5" width="100" height="100"/>
		<rect x="999.5" y="200.5" width="100" height="100"/>
		<rect x="899.5" y="1000.5" width="100" height="100"/>
		<rect x="899.5" y="900.5" fill="#BF8A64" width="100" height="100"/>
		<rect x="899.5" y="800.5" fill="#BF8A64" width="100" height="100"/>
		<rect x="899.5" y="700.5" fill="#925F41" width="100" height="100"/>
		<rect x="899.5" y="600.5" fill="#925F41" width="100" height="100"/>
		<rect x="899.5" y="500.5" fill="#925F41" width="100" height="100"/>
		<rect x="899.5" y="400.5" fill="#925F41" width="100" height="100"/>
		<rect x="899.5" y="300.5" fill="#BF8A64" width="100" height="100"/>
		<rect x="899.5" y="200.5" fill="#BF8A64" width="100" height="100"/>
		<rect x="899.5" y="100.5" width="100" height="100"/>
		<rect x="799.5" y="1000.5" width="100" height="100"/>
		<rect x="799.5" y="900.5" fill="#BF8A64" width="100" height="100"/>
		<rect x="799.5" y="800.5" fill="#925F41" width="100" height="100"/>
		<rect x="799.5" y="700.5" fill="#925F41" width="100" height="100"/>
		<rect x="799.5" y="600.5" fill="#925F41" width="100" height="100"/>
		<rect x="799.5" y="500.5" fill="#925F41" width="100" height="100"/>
		<rect x="799.5" y="400.5" fill="#925F41" width="100" height="100"/>
		<rect x="799.5" y="300.5" fill="#925F41" width="100" height="100"/>
		<rect x="799.5" y="200.5" fill="#BF8A64" width="100" height="100"/>
		<rect x="799.5" y="100.5" width="100" height="100"/>
		<rect x="699.5" y="1100.5" width="100" height="100"/>
		<rect x="699.5" y="1000.5" fill="#BF8A64" width="100" height="100"/>
		<rect x="699.5" y="900.5" fill="#BF8A64" width="100" height="100"/>
		<rect x="699.5" y="800.5" fill="#BF8A64" width="100" height="100"/>
		<rect x="699.5" y="700.5" fill="#BF8A64" width="100" height="100"/>
		<rect x="699.5" y="600.5" fill="#BF8A64" width="100" height="100"/>
		<rect x="699.5" y="500.5" fill="#BF8A64" width="100" height="100"/>
		<rect x="699.5" y="400.5" fill="#BF8A64" width="100" height="100"/>
		<rect x="699.5" y="300.5" fill="#BF8A64" width="100" height="100"/>
		<rect x="699.5" y="200.5" fill="#BF8A64" width="100" height="100"/>
		<rect x="699.5" y="100.5" fill="#BF8A64" width="100" height="100"/>
		<rect x="699.5" y="0.5" width="100" height="100"/>
		<rect x="599.5" y="1100.5" width="100" height="100"/>
		<rect x="599.5" y="1000.5" fill="#BF8A64" width="100" height="100"/>
		<rect x="599.5" y="900.5" fill="#925F41" width="100" height="100"/>
		<rect x="599.5" y="800.5" fill="#925F41" width="100" height="100"/>
		<rect x="599.5" y="700.5" fill="#925F41" width="100" height="100"/>
		<rect x="599.5" y="600.5" fill="#925F41" width="100" height="100"/>
		<rect x="599.5" y="500.5" fill="#925F41" width="100" height="100"/>
		<rect x="599.5" y="400.5" fill="#925F41" width="100" height="100"/>
		<rect x="599.5" y="300.5" fill="#925F41" width="100" height="100"/>
		<rect x="599.5" y="200.5" fill="#925F41" width="100" height="100"/>
		<rect x="599.5" y="100.5" fill="#BF8A64" width="100" height="100"/>
		<rect x="599.5" y="0.5" width="100" height="100"/>
		<rect x="499.5" y="1100.5" width="100" height="100"/>
		<rect x="499.5" y="1000.5" fill="#BF8A64" width="100" height="100"/>
		<rect x="499.5" y="900.5" fill="#925F41" width="100" height="100"/>
		<rect x="499.5" y="800.5" fill="#925F41" width="100" height="100"/>
		<rect x="499.5" y="700.5" fill="#925F41" width="100" height="100"/>
		<rect x="499.5" y="600.5" fill="#925F41" width="100" height="100"/>
		<rect x="499.5" y="500.5" fill="#925F41" width="100" height="100"/>
		<rect x="499.5" y="400.5" fill="#925F41" width="100" height="100"/>
		<rect x="499.5" y="300.5" fill="#925F41" width="100" height="100"/>
		<rect x="499.5" y="200.5" fill="#925F41" width="100" height="100"/>
		<rect x="499.5" y="100.5" fill="#BF8A64" width="100" height="100"/>
		<rect x="499.5" y="0.5" width="100" height="100"/>
		<rect x="399.5" y="1100.5" width="100" height="100"/>
		<rect x="399.5" y="1000.5" fill="#BF8A64" width="100" height="100"/>
		<rect x="399.5" y="900.5" fill="#BF8A64" width="100" height="100"/>
		<rect x="399.5" y="800.5" fill="#BF8A64" width="100" height="100"/>
		<rect x="399.5" y="700.5" fill="#BF8A64" width="100" height="100"/>
		<rect x="399.5" y="600.5" fill="#BF8A64" width="100" height="100"/>
		<rect x="399.5" y="500.5" fill="#BF8A64" width="100" height="100"/>
		<rect x="399.5" y="400.5" fill="#BF8A64" width="100" height="100"/>
		<rect x="399.5" y="300.5" fill="#BF8A64" width="100" height="100"/>
		<rect x="399.5" y="200.5" fill="#BF8A64" width="100" height="100"/>
		<rect x="399.5" y="100.5" fill="#BF8A64" width="100" height="100"/>
		<rect x="399.5" y="0.5" width="100" height="100"/>
		<rect x="299.5" y="1000.5" width="100" height="100"/>
		<rect x="299.5" y="900.5" fill="#BF8A64" width="100" height="100"/>
		<rect x="299.5" y="800.5" fill="#925F41" width="100" height="100"/>
		<rect x="299.5" y="700.5" fill="#925F41" width="100" height="100"/>
		<rect x="299.5" y="600.5" fill="#925F41" width="100" height="100"/>
		<rect x="299.5" y="500.5" fill="#925F41" width="100" height="100"/>
		<rect x="299.5" y="400.5" fill="#925F41" width="100" height="100"/>
		<rect x="299.5" y="300.5" fill="#925F41" width="100" height="100"/>
		<rect x="299.5" y="200.5" fill="#BF8A64" width="100" height="100"/>
		<rect x="299.5" y="100.5" width="100" height="100"/>
		<rect x="199.5" y="1000.5" width="100" height="100"/>
		<rect x="199.5" y="900.5" fill="#BF8A64" width="100" height="100"/>
		<rect x="199.5" y="800.5" fill="#BF8A64" width="100" height="100"/>
		<rect x="199.5" y="700.5" fill="#925F41" width="100" height="100"/>
		<rect x="199.5" y="600.5" fill="#925F41" width="100" height="100"/>
		<rect x="199.5" y="500.5" fill="#925F41" width="100" height="100"/>
		<rect x="199.5" y="400.5" fill="#925F41" width="100" height="100"/>
		<rect x="199.5" y="300.5" fill="#BF8A64" width="100" height="100"/>
		<rect x="199.5" y="200.5" fill="#BF8A64" width="100" height="100"/>
		<rect x="199.5" y="100.5" width="100" height="100"/>
		<rect x="99.5" y="900.5" width="100" height="100"/>
		<rect x="99.5" y="800.5" width="100" height="100"/>
		<rect x="99.5" y="700.5" fill="#BF8A64" width="100" height="100"/>
		<rect x="99.5" y="600.5" fill="#BF8A64" width="100" height="100"/>
		<rect x="99.5" y="500.5" fill="#BF8A64" width="100" height="100"/>
		<rect x="99.5" y="400.5" fill="#BF8A64" width="100" height="100"/>
		<rect x="99.5" y="300.5" width="100" height="100"/>
		<rect x="99.5" y="200.5" width="100" height="100"/>
		<rect x="-0.5" y="700.5" width="100" height="100"/>
		<rect x="-0.5" y="600.5" width="100" height="100"/>
		<rect x="-0.5" y="500.5" width="100" height="100"/>
		<rect x="-0.5" y="400.5" width="100" height="100"/>
	</g>
	<g>
		<polyline fill="none" stroke="#925F41" stroke-miterlimit="10" points="1099.5,0.5 1199.5,0.5 1199.5,100.5 		"/>
		<polyline fill="none" stroke="#000000" stroke-width="0.5" stroke-linecap="round" stroke-linejoin="round" points="999.5,0.5 
			1099.5,0.5 1099.5,100.5 		"/>
		<polyline fill="none" stroke="#000000" stroke-width="0.5" stroke-linecap="round" stroke-linejoin="round" points="899.5,0.5 
			999.5,0.5 999.5,100.5 		"/>
		<polyline fill="none" stroke="#000000" stroke-width="0.5" stroke-linecap="round" stroke-linejoin="round" points="799.5,0.5 
			899.5,0.5 899.5,100.5 		"/>
		<polyline fill="none" stroke="#000000" stroke-width="0.5" stroke-linecap="round" stroke-linejoin="round" points="699.5,0.5 
			799.5,0.5 799.5,100.5 		"/>
		<polyline fill="none" stroke="#000000" stroke-width="0.5" stroke-linecap="round" stroke-linejoin="round" points="599.5,0.5 
			699.5,0.5 699.5,100.5 		"/>
		<polyline fill="none" stroke="#000000" stroke-width="0.5" stroke-linecap="round" stroke-linejoin="round" points="499.5,0.5 
			599.5,0.5 599.5,100.5 		"/>
		<polyline fill="none" stroke="#000000" stroke-width="0.5" stroke-linecap="round" stroke-linejoin="round" points="399.5,0.5 
			499.5,0.5 499.5,100.5 		"/>
		<polyline fill="none" stroke="#000000" stroke-width="0.5" stroke-linecap="round" stroke-linejoin="round" points="299.5,0.5 
			399.5,0.5 399.5,100.5 		"/>
		<polyline fill="none" stroke="#000000" stroke-width="0.5" stroke-linecap="round" stroke-linejoin="round" points="199.5,0.5 
			299.5,0.5 299.5,100.5 		"/>
		<polyline fill="none" stroke="#000000" stroke-width="0.5" stroke-linecap="round" stroke-linejoin="round" points="99.5,0.5 
			199.5,0.5 199.5,100.5 		"/>
		<polyline fill="none" stroke="#000000" stroke-width="0.5" stroke-linecap="round" stroke-linejoin="round" points="-0.5,100.5 
			-0.5,0.5 99.5,0.5 99.5,100.5 		"/>
		<polyline fill="none" stroke="#000000" stroke-width="0.5" stroke-linecap="round" stroke-linejoin="round" points="1099.5,100.5 
			1199.5,100.5 1199.5,200.5 		"/>
		<polyline fill="none" stroke="#000000" stroke-width="0.5" stroke-linecap="round" stroke-linejoin="round" points="999.5,100.5 
			1099.5,100.5 1099.5,200.5 		"/>
		<polyline fill="none" stroke="#000000" stroke-width="0.5" stroke-linecap="round" stroke-linejoin="round" points="899.5,100.5 
			999.5,100.5 999.5,200.5 		"/>
		<polyline fill="none" stroke="#000000" stroke-width="0.5" stroke-linecap="round" stroke-linejoin="round" points="799.5,100.5 
			899.5,100.5 899.5,200.5 		"/>
		<polyline fill="none" stroke="#000000" stroke-width="0.5" stroke-linecap="round" stroke-linejoin="round" points="699.5,100.5 
			799.5,100.5 799.5,200.5 		"/>
		<polyline fill="none" stroke="#000000" stroke-width="0.5" stroke-linecap="round" stroke-linejoin="round" points="599.5,100.5 
			699.5,100.5 699.5,200.5 		"/>
		<polyline fill="none" stroke="#000000" stroke-width="0.5" stroke-linecap="round" stroke-linejoin="round" points="499.5,100.5 
			599.5,100.5 599.5,200.5 		"/>
		<polyline fill="none" stroke="#000000" stroke-width="0.5" stroke-linecap="round" stroke-linejoin="round" points="399.5,100.5 
			499.5,100.5 499.5,200.5 		"/>
		<polyline fill="none" stroke="#000000" stroke-width="0.5" stroke-linecap="round" stroke-linejoin="round" points="299.5,100.5 
			399.5,100.5 399.5,200.5 		"/>
		<polyline fill="none" stroke="#000000" stroke-width="0.5" stroke-linecap="round" stroke-linejoin="round" points="199.5,100.5 
			299.5,100.5 299.5,200.5 		"/>
		<polyline fill="none" stroke="#000000" stroke-width="0.5" stroke-linecap="round" stroke-linejoin="round" points="99.5,100.5 
			199.5,100.5 199.5,200.5 		"/>
		<polyline fill="none" stroke="#000000" stroke-width="0.5" stroke-linecap="round" stroke-linejoin="round" points="-0.5,200.5 
			-0.5,100.5 99.5,100.5 99.5,200.5 		"/>
		<polyline fill="none" stroke="#000000" stroke-width="0.5" stroke-linecap="round" stroke-linejoin="round" points="1099.5,200.5 
			1199.5,200.5 1199.5,300.5 		"/>
		<polyline fill="none" stroke="#000000" stroke-width="0.5" stroke-linecap="round" stroke-linejoin="round" points="999.5,200.5 
			1099.5,200.5 1099.5,300.5 		"/>
		<polyline fill="none" stroke="#000000" stroke-width="0.5" stroke-linecap="round" stroke-linejoin="round" points="899.5,200.5 
			999.5,200.5 999.5,300.5 		"/>
		<polyline fill="none" stroke="#000000" stroke-width="0.5" stroke-linecap="round" stroke-linejoin="round" points="799.5,200.5 
			899.5,200.5 899.5,300.5 		"/>
		<polyline fill="none" stroke="#000000" stroke-width="0.5" stroke-linecap="round" stroke-linejoin="round" points="699.5,200.5 
			799.5,200.5 799.5,300.5 		"/>
		<polyline fill="none" stroke="#000000" stroke-width="0.5" stroke-linecap="round" stroke-linejoin="round" points="599.5,200.5 
			699.5,200.5 699.5,300.5 		"/>
		<polyline fill="none" stroke="#000000" stroke-width="0.5" stroke-linecap="round" stroke-linejoin="round" points="499.5,200.5 
			599.5,200.5 599.5,300.5 		"/>
		<polyline fill="none" stroke="#000000" stroke-width="0.5" stroke-linecap="round" stroke-linejoin="round" points="399.5,200.5 
			499.5,200.5 499.5,300.5 		"/>
		<polyline fill="none" stroke="#000000" stroke-width="0.5" stroke-linecap="round" stroke-linejoin="round" points="299.5,200.5 
			399.5,200.5 399.5,300.5 		"/>
		<polyline fill="none" stroke="#000000" stroke-width="0.5" stroke-linecap="round" stroke-linejoin="round" points="199.5,200.5 
			299.5,200.5 299.5,300.5 		"/>
		<polyline fill="none" stroke="#000000" stroke-width="0.5" stroke-linecap="round" stroke-linejoin="round" points="99.5,200.5 
			199.5,200.5 199.5,300.5 		"/>
		<polyline fill="none" stroke="#000000" stroke-width="0.5" stroke-linecap="round" stroke-linejoin="round" points="-0.5,300.5 
			-0.5,200.5 99.5,200.5 99.5,300.5 		"/>
		<polyline fill="none" stroke="#000000" stroke-width="0.5" stroke-linecap="round" stroke-linejoin="round" points="1099.5,300.5 
			1199.5,300.5 1199.5,400.5 		"/>
		<polyline fill="none" stroke="#000000" stroke-width="0.5" stroke-linecap="round" stroke-linejoin="round" points="999.5,300.5 
			1099.5,300.5 1099.5,400.5 		"/>
		<polyline fill="none" stroke="#000000" stroke-width="0.5" stroke-linecap="round" stroke-linejoin="round" points="899.5,300.5 
			999.5,300.5 999.5,400.5 		"/>
		<polyline fill="none" stroke="#000000" stroke-width="0.5" stroke-linecap="round" stroke-linejoin="round" points="799.5,300.5 
			899.5,300.5 899.5,400.5 		"/>
		<polyline fill="none" stroke="#000000" stroke-width="0.5" stroke-linecap="round" stroke-linejoin="round" points="699.5,300.5 
			799.5,300.5 799.5,400.5 		"/>
		<polyline fill="none" stroke="#000000" stroke-width="0.5" stroke-linecap="round" stroke-linejoin="round" points="599.5,300.5 
			699.5,300.5 699.5,400.5 		"/>
		<polyline fill="none" stroke="#000000" stroke-width="0.5" stroke-linecap="round" stroke-linejoin="round" points="499.5,300.5 
			599.5,300.5 599.5,400.5 		"/>
		<polyline fill="none" stroke="#000000" stroke-width="0.5" stroke-linecap="round" stroke-linejoin="round" points="399.5,300.5 
			499.5,300.5 499.5,400.5 		"/>
		<polyline fill="none" stroke="#000000" stroke-width="0.5" stroke-linecap="round" stroke-linejoin="round" points="299.5,300.5 
			399.5,300.5 399.5,400.5 		"/>
		<polyline fill="none" stroke="#000000" stroke-width="0.5" stroke-linecap="round" stroke-linejoin="round" points="199.5,300.5 
			299.5,300.5 299.5,400.5 		"/>
		<polyline fill="none" stroke="#000000" stroke-width="0.5" stroke-linecap="round" stroke-linejoin="round" points="99.5,300.5 
			199.5,300.5 199.5,400.5 		"/>
		<polyline fill="none" stroke="#000000" stroke-width="0.5" stroke-linecap="round" stroke-linejoin="round" points="-0.5,400.5 
			-0.5,300.5 99.5,300.5 99.5,400.5 		"/>
		<polyline fill="none" stroke="#000000" stroke-width="0.5" stroke-linecap="round" stroke-linejoin="round" points="1099.5,400.5 
			1199.5,400.5 1199.5,500.5 		"/>
		<polyline fill="none" stroke="#000000" stroke-width="0.5" stroke-linecap="round" stroke-linejoin="round" points="999.5,400.5 
			1099.5,400.5 1099.5,500.5 		"/>
		<polyline fill="none" stroke="#000000" stroke-width="0.5" stroke-linecap="round" stroke-linejoin="round" points="899.5,400.5 
			999.5,400.5 999.5,500.5 		"/>
		<polyline fill="none" stroke="#000000" stroke-width="0.5" stroke-linecap="round" stroke-linejoin="round" points="799.5,400.5 
			899.5,400.5 899.5,500.5 		"/>
		<polyline fill="none" stroke="#000000" stroke-width="0.5" stroke-linecap="round" stroke-linejoin="round" points="699.5,400.5 
			799.5,400.5 799.5,500.5 		"/>
		<polyline fill="none" stroke="#000000" stroke-width="0.5" stroke-linecap="round" stroke-linejoin="round" points="599.5,400.5 
			699.5,400.5 699.5,500.5 		"/>
		<polyline fill="none" stroke="#000000" stroke-width="0.5" stroke-linecap="round" stroke-linejoin="round" points="499.5,400.5 
			599.5,400.5 599.5,500.5 		"/>
		<polyline fill="none" stroke="#000000" stroke-width="0.5" stroke-linecap="round" stroke-linejoin="round" points="399.5,400.5 
			499.5,400.5 499.5,500.5 		"/>
		<polyline fill="none" stroke="#000000" stroke-width="0.5" stroke-linecap="round" stroke-linejoin="round" points="299.5,400.5 
			399.5,400.5 399.5,500.5 		"/>
		<polyline fill="none" stroke="#000000" stroke-width="0.5" stroke-linecap="round" stroke-linejoin="round" points="199.5,400.5 
			299.5,400.5 299.5,500.5 		"/>
		<polyline fill="none" stroke="#000000" stroke-width="0.5" stroke-linecap="round" stroke-linejoin="round" points="99.5,400.5 
			199.5,400.5 199.5,500.5 		"/>
		<polyline fill="none" stroke="#000000" stroke-width="0.5" stroke-linecap="round" stroke-linejoin="round" points="-0.5,500.5 
			-0.5,400.5 99.5,400.5 99.5,500.5 		"/>
		<polyline fill="none" stroke="#000000" stroke-width="0.5" stroke-linecap="round" stroke-linejoin="round" points="1099.5,500.5 
			1199.5,500.5 1199.5,600.5 		"/>
		<polyline fill="none" stroke="#000000" stroke-width="0.5" stroke-linecap="round" stroke-linejoin="round" points="999.5,500.5 
			1099.5,500.5 1099.5,600.5 		"/>
		<polyline fill="none" stroke="#000000" stroke-width="0.5" stroke-linecap="round" stroke-linejoin="round" points="899.5,500.5 
			999.5,500.5 999.5,600.5 		"/>
		<polyline fill="none" stroke="#000000" stroke-width="0.5" stroke-linecap="round" stroke-linejoin="round" points="799.5,500.5 
			899.5,500.5 899.5,600.5 		"/>
		<polyline fill="none" stroke="#000000" stroke-width="0.5" stroke-linecap="round" stroke-linejoin="round" points="699.5,500.5 
			799.5,500.5 799.5,600.5 		"/>
		<polyline fill="none" stroke="#000000" stroke-width="0.5" stroke-linecap="round" stroke-linejoin="round" points="599.5,500.5 
			699.5,500.5 699.5,600.5 		"/>
		<polyline fill="none" stroke="#000000" stroke-width="0.5" stroke-linecap="round" stroke-linejoin="round" points="499.5,500.5 
			599.5,500.5 599.5,600.5 		"/>
		<polyline fill="none" stroke="#000000" stroke-width="0.5" stroke-linecap="round" stroke-linejoin="round" points="399.5,500.5 
			499.5,500.5 499.5,600.5 		"/>
		<polyline fill="none" stroke="#000000" stroke-width="0.5" stroke-linecap="round" stroke-linejoin="round" points="299.5,500.5 
			399.5,500.5 399.5,600.5 		"/>
		<polyline fill="none" stroke="#000000" stroke-width="0.5" stroke-linecap="round" stroke-linejoin="round" points="199.5,500.5 
			299.5,500.5 299.5,600.5 		"/>
		<polyline fill="none" stroke="#000000" stroke-width="0.5" stroke-linecap="round" stroke-linejoin="round" points="99.5,500.5 
			199.5,500.5 199.5,600.5 		"/>
		<polyline fill="none" stroke="#000000" stroke-width="0.5" stroke-linecap="round" stroke-linejoin="round" points="-0.5,600.5 
			-0.5,500.5 99.5,500.5 99.5,600.5 		"/>
		<polyline fill="none" stroke="#000000" stroke-width="0.5" stroke-linecap="round" stroke-linejoin="round" points="1099.5,600.5 
			1199.5,600.5 1199.5,700.5 		"/>
		<polyline fill="none" stroke="#000000" stroke-width="0.5" stroke-linecap="round" stroke-linejoin="round" points="999.5,600.5 
			1099.5,600.5 1099.5,700.5 		"/>
		<polyline fill="none" stroke="#000000" stroke-width="0.5" stroke-linecap="round" stroke-linejoin="round" points="899.5,600.5 
			999.5,600.5 999.5,700.5 		"/>
		<polyline fill="none" stroke="#000000" stroke-width="0.5" stroke-linecap="round" stroke-linejoin="round" points="799.5,600.5 
			899.5,600.5 899.5,700.5 		"/>
		<polyline fill="none" stroke="#000000" stroke-width="0.5" stroke-linecap="round" stroke-linejoin="round" points="699.5,600.5 
			799.5,600.5 799.5,700.5 		"/>
		<polyline fill="none" stroke="#000000" stroke-width="0.5" stroke-linecap="round" stroke-linejoin="round" points="599.5,600.5 
			699.5,600.5 699.5,700.5 		"/>
		<polyline fill="none" stroke="#000000" stroke-width="0.5" stroke-linecap="round" stroke-linejoin="round" points="499.5,600.5 
			599.5,600.5 599.5,700.5 		"/>
		<polyline fill="none" stroke="#000000" stroke-width="0.5" stroke-linecap="round" stroke-linejoin="round" points="399.5,600.5 
			499.5,600.5 499.5,700.5 		"/>
		<polyline fill="none" stroke="#000000" stroke-width="0.5" stroke-linecap="round" stroke-linejoin="round" points="299.5,600.5 
			399.5,600.5 399.5,700.5 		"/>
		<polyline fill="none" stroke="#000000" stroke-width="0.5" stroke-linecap="round" stroke-linejoin="round" points="199.5,600.5 
			299.5,600.5 299.5,700.5 		"/>
		<polyline fill="none" stroke="#000000" stroke-width="0.5" stroke-linecap="round" stroke-linejoin="round" points="99.5,600.5 
			199.5,600.5 199.5,700.5 		"/>
		<polyline fill="none" stroke="#000000" stroke-width="0.5" stroke-linecap="round" stroke-linejoin="round" points="-0.5,700.5 
			-0.5,600.5 99.5,600.5 99.5,700.5 		"/>
		<polyline fill="none" stroke="#000000" stroke-width="0.5" stroke-linecap="round" stroke-linejoin="round" points="1099.5,700.5 
			1199.5,700.5 1199.5,800.5 		"/>
		<polyline fill="none" stroke="#000000" stroke-width="0.5" stroke-linecap="round" stroke-linejoin="round" points="999.5,700.5 
			1099.5,700.5 1099.5,800.5 		"/>
		<polyline fill="none" stroke="#000000" stroke-width="0.5" stroke-linecap="round" stroke-linejoin="round" points="899.5,700.5 
			999.5,700.5 999.5,800.5 		"/>
		<polyline fill="none" stroke="#000000" stroke-width="0.5" stroke-linecap="round" stroke-linejoin="round" points="799.5,700.5 
			899.5,700.5 899.5,800.5 		"/>
		<polyline fill="none" stroke="#000000" stroke-width="0.5" stroke-linecap="round" stroke-linejoin="round" points="699.5,700.5 
			799.5,700.5 799.5,800.5 		"/>
		<polyline fill="none" stroke="#000000" stroke-width="0.5" stroke-linecap="round" stroke-linejoin="round" points="599.5,700.5 
			699.5,700.5 699.5,800.5 		"/>
		<polyline fill="none" stroke="#000000" stroke-width="0.5" stroke-linecap="round" stroke-linejoin="round" points="499.5,700.5 
			599.5,700.5 599.5,800.5 		"/>
		<polyline fill="none" stroke="#000000" stroke-width="0.5" stroke-linecap="round" stroke-linejoin="round" points="399.5,700.5 
			499.5,700.5 499.5,800.5 		"/>
		<polyline fill="none" stroke="#000000" stroke-width="0.5" stroke-linecap="round" stroke-linejoin="round" points="299.5,700.5 
			399.5,700.5 399.5,800.5 		"/>
		<polyline fill="none" stroke="#000000" stroke-width="0.5" stroke-linecap="round" stroke-linejoin="round" points="199.5,700.5 
			299.5,700.5 299.5,800.5 		"/>
		<polyline fill="none" stroke="#000000" stroke-width="0.5" stroke-linecap="round" stroke-linejoin="round" points="99.5,700.5 
			199.5,700.5 199.5,800.5 		"/>
		<polyline fill="none" stroke="#000000" stroke-width="0.5" stroke-linecap="round" stroke-linejoin="round" points="-0.5,800.5 
			-0.5,700.5 99.5,700.5 99.5,800.5 		"/>
		<polyline fill="none" stroke="#000000" stroke-width="0.5" stroke-linecap="round" stroke-linejoin="round" points="1099.5,800.5 
			1199.5,800.5 1199.5,900.5 		"/>
		<polyline fill="none" stroke="#000000" stroke-width="0.5" stroke-linecap="round" stroke-linejoin="round" points="999.5,800.5 
			1099.5,800.5 1099.5,900.5 		"/>
		<polyline fill="none" stroke="#000000" stroke-width="0.5" stroke-linecap="round" stroke-linejoin="round" points="899.5,800.5 
			999.5,800.5 999.5,900.5 		"/>
		<polyline fill="none" stroke="#000000" stroke-width="0.5" stroke-linecap="round" stroke-linejoin="round" points="799.5,800.5 
			899.5,800.5 899.5,900.5 		"/>
		<polyline fill="none" stroke="#000000" stroke-width="0.5" stroke-linecap="round" stroke-linejoin="round" points="699.5,800.5 
			799.5,800.5 799.5,900.5 		"/>
		<polyline fill="none" stroke="#000000" stroke-width="0.5" stroke-linecap="round" stroke-linejoin="round" points="599.5,800.5 
			699.5,800.5 699.5,900.5 		"/>
		<polyline fill="none" stroke="#000000" stroke-width="0.5" stroke-linecap="round" stroke-linejoin="round" points="499.5,800.5 
			599.5,800.5 599.5,900.5 		"/>
		<polyline fill="none" stroke="#000000" stroke-width="0.5" stroke-linecap="round" stroke-linejoin="round" points="399.5,800.5 
			499.5,800.5 499.5,900.5 		"/>
		<polyline fill="none" stroke="#000000" stroke-width="0.5" stroke-linecap="round" stroke-linejoin="round" points="299.5,800.5 
			399.5,800.5 399.5,900.5 		"/>
		<polyline fill="none" stroke="#000000" stroke-width="0.5" stroke-linecap="round" stroke-linejoin="round" points="199.5,800.5 
			299.5,800.5 299.5,900.5 		"/>
		<polyline fill="none" stroke="#000000" stroke-width="0.5" stroke-linecap="round" stroke-linejoin="round" points="99.5,800.5 
			199.5,800.5 199.5,900.5 		"/>
		<polyline fill="none" stroke="#000000" stroke-width="0.5" stroke-linecap="round" stroke-linejoin="round" points="-0.5,900.5 
			-0.5,800.5 99.5,800.5 99.5,900.5 		"/>
		<polyline fill="none" stroke="#000000" stroke-width="0.5" stroke-linecap="round" stroke-linejoin="round" points="1099.5,900.5 
			1199.5,900.5 1199.5,1000.5 		"/>
		<polyline fill="none" stroke="#000000" stroke-width="0.5" stroke-linecap="round" stroke-linejoin="round" points="999.5,900.5 
			1099.5,900.5 1099.5,1000.5 		"/>
		<polyline fill="none" stroke="#000000" stroke-width="0.5" stroke-linecap="round" stroke-linejoin="round" points="899.5,900.5 
			999.5,900.5 999.5,1000.5 		"/>
		<polyline fill="none" stroke="#000000" stroke-width="0.5" stroke-linecap="round" stroke-linejoin="round" points="799.5,900.5 
			899.5,900.5 899.5,1000.5 		"/>
		<polyline fill="none" stroke="#000000" stroke-width="0.5" stroke-linecap="round" stroke-linejoin="round" points="699.5,900.5 
			799.5,900.5 799.5,1000.5 		"/>
		<polyline fill="none" stroke="#000000" stroke-width="0.5" stroke-linecap="round" stroke-linejoin="round" points="599.5,900.5 
			699.5,900.5 699.5,1000.5 		"/>
		<polyline fill="none" stroke="#000000" stroke-width="0.5" stroke-linecap="round" stroke-linejoin="round" points="499.5,900.5 
			599.5,900.5 599.5,1000.5 		"/>
		<polyline fill="none" stroke="#000000" stroke-width="0.5" stroke-linecap="round" stroke-linejoin="round" points="399.5,900.5 
			499.5,900.5 499.5,1000.5 		"/>
		<polyline fill="none" stroke="#000000" stroke-width="0.5" stroke-linecap="round" stroke-linejoin="round" points="299.5,900.5 
			399.5,900.5 399.5,1000.5 		"/>
		<polyline fill="none" stroke="#000000" stroke-width="0.5" stroke-linecap="round" stroke-linejoin="round" points="199.5,900.5 
			299.5,900.5 299.5,1000.5 		"/>
		<polyline fill="none" stroke="#000000" stroke-width="0.5" stroke-linecap="round" stroke-linejoin="round" points="99.5,900.5 
			199.5,900.5 199.5,1000.5 		"/>
		<polyline fill="none" stroke="#000000" stroke-width="0.5" stroke-linecap="round" stroke-linejoin="round" points="-0.5,1000.5 
			-0.5,900.5 99.5,900.5 99.5,1000.5 		"/>
		<polyline fill="none" stroke="#000000" stroke-width="0.5" stroke-linecap="round" stroke-linejoin="round" points="
			1099.5,1000.5 1199.5,1000.5 1199.5,1100.5 		"/>
		<polyline fill="none" stroke="#000000" stroke-width="0.5" stroke-linecap="round" stroke-linejoin="round" points="999.5,1000.5 
			1099.5,1000.5 1099.5,1100.5 		"/>
		<polyline fill="none" stroke="#000000" stroke-width="0.5" stroke-linecap="round" stroke-linejoin="round" points="899.5,1000.5 
			999.5,1000.5 999.5,1100.5 		"/>
		<polyline fill="none" stroke="#000000" stroke-width="0.5" stroke-linecap="round" stroke-linejoin="round" points="799.5,1000.5 
			899.5,1000.5 899.5,1100.5 		"/>
		<polyline fill="none" stroke="#000000" stroke-width="0.5" stroke-linecap="round" stroke-linejoin="round" points="699.5,1000.5 
			799.5,1000.5 799.5,1100.5 		"/>
		<polyline fill="none" stroke="#000000" stroke-width="0.5" stroke-linecap="round" stroke-linejoin="round" points="599.5,1000.5 
			699.5,1000.5 699.5,1100.5 		"/>
		<polyline fill="none" stroke="#000000" stroke-width="0.5" stroke-linecap="round" stroke-linejoin="round" points="499.5,1000.5 
			599.5,1000.5 599.5,1100.5 		"/>
		<polyline fill="none" stroke="#000000" stroke-width="0.5" stroke-linecap="round" stroke-linejoin="round" points="399.5,1000.5 
			499.5,1000.5 499.5,1100.5 		"/>
		<polyline fill="none" stroke="#000000" stroke-width="0.5" stroke-linecap="round" stroke-linejoin="round" points="299.5,1000.5 
			399.5,1000.5 399.5,1100.5 		"/>
		<polyline fill="none" stroke="#000000" stroke-width="0.5" stroke-linecap="round" stroke-linejoin="round" points="199.5,1000.5 
			299.5,1000.5 299.5,1100.5 		"/>
		<polyline fill="none" stroke="#000000" stroke-width="0.5" stroke-linecap="round" stroke-linejoin="round" points="99.5,1000.5 
			199.5,1000.5 199.5,1100.5 		"/>
		<polyline fill="none" stroke="#000000" stroke-width="0.5" stroke-linecap="round" stroke-linejoin="round" points="-0.5,1100.5 
			-0.5,1000.5 99.5,1000.5 99.5,1100.5 		"/>
		<polyline fill="none" stroke="#000000" stroke-width="0.5" stroke-linecap="round" stroke-linejoin="round" points="
			1099.5,1100.5 1199.5,1100.5 1199.5,1200.5 1099.5,1200.5 		"/>
		<polyline fill="none" stroke="#000000" stroke-width="0.5" stroke-linecap="round" stroke-linejoin="round" points="999.5,1100.5 
			1099.5,1100.5 1099.5,1200.5 999.5,1200.5 		"/>
		<polyline fill="none" stroke="#000000" stroke-width="0.5" stroke-linecap="round" stroke-linejoin="round" points="899.5,1100.5 
			999.5,1100.5 999.5,1200.5 899.5,1200.5 		"/>
		<polyline fill="none" stroke="#000000" stroke-width="0.5" stroke-linecap="round" stroke-linejoin="round" points="799.5,1100.5 
			899.5,1100.5 899.5,1200.5 799.5,1200.5 		"/>
		<polyline fill="none" stroke="#000000" stroke-width="0.5" stroke-linecap="round" stroke-linejoin="round" points="699.5,1100.5 
			799.5,1100.5 799.5,1200.5 699.5,1200.5 		"/>
		<polyline fill="none" stroke="#000000" stroke-width="0.5" stroke-linecap="round" stroke-linejoin="round" points="599.5,1100.5 
			699.5,1100.5 699.5,1200.5 599.5,1200.5 		"/>
		<polyline fill="none" stroke="#000000" stroke-width="0.5" stroke-linecap="round" stroke-linejoin="round" points="499.5,1100.5 
			599.5,1100.5 599.5,1200.5 499.5,1200.5 		"/>
		<polyline fill="none" stroke="#000000" stroke-width="0.5" stroke-linecap="round" stroke-linejoin="round" points="399.5,1100.5 
			499.5,1100.5 499.5,1200.5 399.5,1200.5 		"/>
		<polyline fill="none" stroke="#000000" stroke-width="0.5" stroke-linecap="round" stroke-linejoin="round" points="299.5,1100.5 
			399.5,1100.5 399.5,1200.5 299.5,1200.5 		"/>
		<polyline fill="none" stroke="#000000" stroke-width="0.5" stroke-linecap="round" stroke-linejoin="round" points="199.5,1100.5 
			299.5,1100.5 299.5,1200.5 199.5,1200.5 		"/>
		<polyline fill="none" stroke="#000000" stroke-width="0.5" stroke-linecap="round" stroke-linejoin="round" points="99.5,1100.5 
			199.5,1100.5 199.5,1200.5 99.5,1200.5 		"/>
		
			<rect x="-0.5" y="1100.5" fill="none" stroke="#000000" stroke-width="0.5" stroke-linecap="round" stroke-linejoin="round" width="100" height="100"/>
	</g>
</g>
</svg>
