<?xml version="1.0" encoding="utf-8"?>
<!-- Generator: Adobe Illustrator 16.0.0, SVG Export Plug-In . SVG Version: 6.00 Build 0)  -->
<!DOCTYPE svg PUBLIC "-//W3C//DTD SVG 1.1//EN" "http://www.w3.org/Graphics/SVG/1.1/DTD/svg11.dtd">
<svg version="1.1" id="Layer_1" xmlns="http://www.w3.org/2000/svg" xmlns:xlink="http://www.w3.org/1999/xlink" x="0px" y="0px"
	 width="1200px" height="1200px" viewBox="0 0 1200 1200" enable-background="new 0 0 1200 1200" xml:space="preserve">
<g id="XMLID_1_">
	<g>
		<rect x="1100" y="700" width="100" height="100"/>
		<rect x="1100" y="600" width="100" height="100"/>
		<rect x="1100" y="500" width="100" height="100"/>
		<rect x="1100" y="400" width="100" height="100"/>
		<rect x="1000" y="900" width="100" height="100"/>
		<rect x="1000" y="800" width="100" height="100"/>
		<rect x="1000" y="700" fill="#BF8A64" width="100" height="100"/>
		<rect x="1000" y="600" fill="#BF8A64" width="100" height="100"/>
		<rect x="1000" y="500" fill="#BF8A64" width="100" height="100"/>
		<rect x="1000" y="400" fill="#BF8A64" width="100" height="100"/>
		<rect x="1000" y="300" width="100" height="100"/>
		<rect x="1000" y="200" width="100" height="100"/>
		<rect x="900" y="1000" width="100" height="100"/>
		<rect x="900" y="900" fill="#BF8A64" width="100" height="100"/>
		<rect x="900" y="800" fill="#BF8A64" width="100" height="100"/>
		<rect x="900" y="700" fill="#925F41" width="100" height="100"/>
		<rect x="900" y="600" fill="#925F41" width="100" height="100"/>
		<rect x="900" y="500" fill="#925F41" width="100" height="100"/>
		<rect x="900" y="400" fill="#925F41" width="100" height="100"/>
		<rect x="900" y="300" fill="#BF8A64" width="100" height="100"/>
		<rect x="900" y="200" fill="#BF8A64" width="100" height="100"/>
		<rect x="900" y="100" width="100" height="100"/>
		<rect x="800" y="1000" width="100" height="100"/>
		<rect x="800" y="900" fill="#BF8A64" width="100" height="100"/>
		<rect x="800" y="800" fill="#925F41" width="100" height="100"/>
		<rect x="800" y="700" fill="#925F41" width="100" height="100"/>
		<rect x="800" y="600" fill="#925F41" width="100" height="100"/>
		<rect x="800" y="500" fill="#925F41" width="100" height="100"/>
		<rect x="800" y="400" fill="#925F41" width="100" height="100"/>
		<rect x="800" y="300" fill="#925F41" width="100" height="100"/>
		<rect x="800" y="200" fill="#BF8A64" width="100" height="100"/>
		<rect x="800" y="100" width="100" height="100"/>
		<rect x="700" y="1100" width="100" height="100"/>
		<rect x="700" y="1000" fill="#BF8A64" width="100" height="100"/>
		<rect x="700" y="900" fill="#BF8A64" width="100" height="100"/>
		<rect x="700" y="800" fill="#BF8A64" width="100" height="100"/>
		<rect x="700" y="700" fill="#BF8A64" width="100" height="100"/>
		<rect x="700" y="600" fill="#BF8A64" width="100" height="100"/>
		<rect x="700" y="500" fill="#BF8A64" width="100" height="100"/>
		<rect x="700" y="400" fill="#BF8A64" width="100" height="100"/>
		<rect x="700" y="300" fill="#BF8A64" width="100" height="100"/>
		<rect x="700" y="200" fill="#BF8A64" width="100" height="100"/>
		<rect x="700" y="100" fill="#BF8A64" width="100" height="100"/>
		<rect x="700" y="0" width="100" height="100"/>
		<rect x="600" y="1100" width="100" height="100"/>
		<rect x="600" y="1000" fill="#BF8A64" width="100" height="100"/>
		<rect x="600" y="900" fill="#925F41" width="100" height="100"/>
		<rect x="600" y="800" fill="#925F41" width="100" height="100"/>
		<rect x="600" y="700" fill="#925F41" width="100" height="100"/>
		<rect x="600" y="600" fill="#925F41" width="100" height="100"/>
		<rect x="600" y="500" fill="#925F41" width="100" height="100"/>
		<rect x="600" y="400" fill="#925F41" width="100" height="100"/>
		<rect x="600" y="300" fill="#925F41" width="100" height="100"/>
		<rect x="600" y="200" fill="#925F41" width="100" height="100"/>
		<rect x="600" y="100" fill="#BF8A64" width="100" height="100"/>
		<rect x="600" y="0" width="100" height="100"/>
		<rect x="500" y="1100" width="100" height="100"/>
		<rect x="500" y="1000" fill="#BF8A64" width="100" height="100"/>
		<rect x="500" y="900" fill="#925F41" width="100" height="100"/>
		<rect x="500" y="800" fill="#925F41" width="100" height="100"/>
		<rect x="500" y="700" fill="#925F41" width="100" height="100"/>
		<rect x="500" y="600" fill="#925F41" width="100" height="100"/>
		<rect x="500" y="500" fill="#925F41" width="100" height="100"/>
		<rect x="500" y="400" fill="#925F41" width="100" height="100"/>
		<rect x="500" y="300" fill="#925F41" width="100" height="100"/>
		<rect x="500" y="200" fill="#925F41" width="100" height="100"/>
		<rect x="500" y="100" fill="#BF8A64" width="100" height="100"/>
		<rect x="500" y="0" width="100" height="100"/>
		<rect x="400" y="1100" width="100" height="100"/>
		<rect x="400" y="1000" fill="#BF8A64" width="100" height="100"/>
		<rect x="400" y="900" fill="#BF8A64" width="100" height="100"/>
		<rect x="400" y="800" fill="#BF8A64" width="100" height="100"/>
		<rect x="400" y="700" fill="#BF8A64" width="100" height="100"/>
		<rect x="400" y="600" fill="#BF8A64" width="100" height="100"/>
		<rect x="400" y="500" fill="#BF8A64" width="100" height="100"/>
		<rect x="400" y="400" fill="#BF8A64" width="100" height="100"/>
		<rect x="400" y="300" fill="#BF8A64" width="100" height="100"/>
		<rect x="400" y="200" fill="#BF8A64" width="100" height="100"/>
		<rect x="400" y="100" fill="#BF8A64" width="100" height="100"/>
		<rect x="400" y="0" width="100" height="100"/>
		<rect x="300" y="1000" width="100" height="100"/>
		<rect x="300" y="900" fill="#BF8A64" width="100" height="100"/>
		<rect x="300" y="800" fill="#925F41" width="100" height="100"/>
		<rect x="300" y="700" fill="#925F41" width="100" height="100"/>
		<rect x="300" y="600" fill="#925F41" width="100" height="100"/>
		<rect x="300" y="500" fill="#925F41" width="100" height="100"/>
		<rect x="300" y="400" fill="#925F41" width="100" height="100"/>
		<rect x="300" y="300" fill="#925F41" width="100" height="100"/>
		<rect x="300" y="200" fill="#BF8A64" width="100" height="100"/>
		<rect x="300" y="100" width="100" height="100"/>
		<rect x="200" y="1000" width="100" height="100"/>
		<rect x="200" y="900" fill="#BF8A64" width="100" height="100"/>
		<rect x="200" y="800" fill="#BF8A64" width="100" height="100"/>
		<rect x="200" y="700" fill="#925F41" width="100" height="100"/>
		<rect x="200" y="600" fill="#925F41" width="100" height="100"/>
		<rect x="200" y="500" fill="#925F41" width="100" height="100"/>
		<rect x="200" y="400" fill="#925F41" width="100" height="100"/>
		<rect x="200" y="300" fill="#BF8A64" width="100" height="100"/>
		<rect x="200" y="200" fill="#BF8A64" width="100" height="100"/>
		<rect x="200" y="100" width="100" height="100"/>
		<rect x="100" y="900" width="100" height="100"/>
		<rect x="100" y="800" width="100" height="100"/>
		<rect x="100" y="700" fill="#BF8A64" width="100" height="100"/>
		<rect x="100" y="600" fill="#BF8A64" width="100" height="100"/>
		<rect x="100" y="500" fill="#BF8A64" width="100" height="100"/>
		<rect x="100" y="400" fill="#BF8A64" width="100" height="100"/>
		<rect x="100" y="300" width="100" height="100"/>
		<rect x="100" y="200" width="100" height="100"/>
		<rect x="0" y="700" width="100" height="100"/>
		<rect x="0" y="600" width="100" height="100"/>
		<rect x="0" y="500" width="100" height="100"/>
		<rect x="0" y="400" width="100" height="100"/>
	</g>
</g>
</svg>
