<?xml version="1.0" encoding="utf-8"?>
<!-- Generator: Adobe Illustrator 16.0.0, SVG Export Plug-In . SVG Version: 6.00 Build 0)  -->
<!DOCTYPE svg PUBLIC "-//W3C//DTD SVG 1.1//EN" "http://www.w3.org/Graphics/SVG/1.1/DTD/svg11.dtd">
<svg version="1.1" id="Layer_1" xmlns="http://www.w3.org/2000/svg" xmlns:xlink="http://www.w3.org/1999/xlink" x="0px" y="0px"
	 width="3500px" height="700px" viewBox="0 0 3500 700" enable-background="new 0 0 3500 700" xml:space="preserve">
<g id="XMLID_1_">
	<g>
		<rect y="100" width="100" height="100"/>
		<rect x="100" y="200" width="100" height="100"/>
		<rect x="200" y="100" width="100" height="100"/>
		<rect x="300" y="100" width="100" height="100"/>
		<rect x="400" y="100" width="100" height="100"/>
		<rect x="200" y="200" fill="#F2C528" width="100" height="100"/>
		<rect x="400" y="100" fill="#F2C528" width="100" height="100"/>
		<rect y="200" fill="#F2C528" width="100" height="100"/>
		<rect x="400" y="200" fill="#FA9B20" width="100" height="100"/>
		<rect x="400" y="400" fill="#FA9B20" width="100" height="100"/>
		<rect x="400" y="300" fill="#FA9B20" width="100" height="100"/>
		<rect x="300" y="200" fill="#F2C528" width="100" height="100"/>
		<rect x="300" y="300" fill="#FA9B20" width="100" height="100"/>
		<rect x="300" y="400" fill="#D63A1C" width="100" height="100"/>
		<rect x="200" y="300" fill="#F2C528" width="100" height="100"/>
		<rect x="400" y="300" fill="none" width="100" height="100"/>
		<rect x="400" y="600" fill="#D63A1C" width="100" height="100"/>
		<rect x="400" y="500" fill="#D63A1C" width="100" height="100"/>
		<rect x="300" y="600" fill="#D63A1C" width="100" height="100"/>
		<rect x="300" y="500" fill="#D63A1C" width="100" height="100"/>
		<rect x="200" y="600" fill="#D63A1C" width="100" height="100"/>
		<rect x="200" y="500" fill="#F2C528" width="100" height="100"/>
		<rect x="200" y="400" fill="#FA9B20" width="100" height="100"/>
		<rect x="100" y="600" fill="#D63A1C" width="100" height="100"/>
		<rect x="100" y="500" fill="#FA9B20" width="100" height="100"/>
		<rect x="100" y="400" fill="#FA9B20" width="100" height="100"/>
		<rect x="100" y="300" fill="#F2C528" width="100" height="100"/>
		<rect y="600" fill="#D63A1C" width="100" height="100"/>
		<rect y="500" fill="#D63A1C" width="100" height="100"/>
		<rect y="400" fill="#FA9B20" width="100" height="100"/>
		<rect y="300" fill="#FA9B20" width="100" height="100"/>
	</g>
	<g>
	</g>
</g>
<g id="XMLID_2_">
	<g>
		<rect x="500" width="100" height="100"/>
		<rect x="600" y="100" width="100" height="100"/>
		<rect x="700" y="200" width="100" height="100"/>
		<rect x="800" y="100" width="100" height="100"/>
		<rect x="900" width="100" height="100"/>
		<rect x="600" y="200" fill="#F2C528" width="100" height="100"/>
		<rect x="500" y="100" fill="#F2C528" width="100" height="100"/>
		<rect x="900" y="600" fill="#D63A1C" width="100" height="100"/>
		<rect x="900" y="500" fill="#D63A1C" width="100" height="100"/>
		<rect x="900" y="400" fill="#D63A1C" width="100" height="100"/>
		<rect x="900" y="300" fill="#FA9B20" width="100" height="100"/>
		<rect x="900" y="200" fill="#FA9B20" width="100" height="100"/>
		<rect x="900" y="100" fill="#F2C528" width="100" height="100"/>
		<rect x="800" y="600" fill="#D63A1C" width="100" height="100"/>
		<rect x="800" y="500" fill="#D63A1C" width="100" height="100"/>
		<rect x="800" y="400" fill="#FA9B20" width="100" height="100"/>
		<rect x="800" y="300" fill="#FA9B20" width="100" height="100"/>
		<rect x="800" y="200" fill="#F2C528" width="100" height="100"/>
		<rect x="700" y="600" fill="#D63A1C" width="100" height="100"/>
		<rect x="700" y="500" fill="#FA9B20" width="100" height="100"/>
		<rect x="700" y="400" fill="#FA9B20" width="100" height="100"/>
		<rect x="700" y="300" fill="#F2C528" width="100" height="100"/>
		<rect x="600" y="600" fill="#D63A1C" width="100" height="100"/>
		<rect x="600" y="500" fill="#D63A1C" width="100" height="100"/>
		<rect x="600" y="400" fill="#FA9B20" width="100" height="100"/>
		<rect x="600" y="300" fill="#F2C528" width="100" height="100"/>
		<rect x="500" y="600" fill="#D63A1C" width="100" height="100"/>
		<rect x="500" y="200" fill="#F2C528" width="100" height="100"/>
		<rect x="500" y="300" fill="#FA9B20" width="100" height="100"/>
		<rect x="500" y="400" fill="#D63A1C" width="100" height="100"/>
		<rect x="500" y="500" fill="#D63A1C" width="100" height="100"/>
	</g>
	<g>
	</g>
</g>
<g id="XMLID_3_">
	<g>
		<rect x="1000" width="100" height="100"/>
		<rect x="1100" y="100" width="100" height="100"/>
		<rect x="1200" y="100" width="100" height="100"/>
		<rect x="1300" y="100" width="100" height="100"/>
		<rect x="1400" width="100" height="100"/>
		<rect x="1200" y="200" fill="#FA9B20" width="100" height="100"/>
		<rect x="1400" y="100" fill="#F2C528" width="100" height="100"/>
		<rect x="1400" y="200" fill="#F2C528" width="100" height="100"/>
		<rect x="1000" y="100" fill="#F2C528" width="100" height="100"/>
		<rect x="1000" y="200" fill="#F2C528" width="100" height="100"/>
		<rect x="1300" y="200" fill="#FA9B20" width="100" height="100"/>
		<rect x="1100" y="200" fill="#FA9B20" width="100" height="100"/>
		<rect x="1300" y="300" fill="#F2C528" width="100" height="100"/>
		<rect x="1400" y="600" fill="#D63A1C" width="100" height="100"/>
		<rect x="1400" y="500" fill="#D63A1C" width="100" height="100"/>
		<rect x="1400" y="400" fill="#FA9B20" width="100" height="100"/>
		<rect x="1400" y="300" fill="#FA9B20" width="100" height="100"/>
		<rect x="1300" y="600" fill="#D63A1C" width="100" height="100"/>
		<rect x="1300" y="500" fill="#FA9B20" width="100" height="100"/>
		<rect x="1300" y="400" fill="#FA9B20" width="100" height="100"/>
		<rect x="1200" y="600" fill="#D63A1C" width="100" height="100"/>
		<rect x="1200" y="500" fill="#FA9B20" width="100" height="100"/>
		<rect x="1200" y="400" fill="#FA9B20" width="100" height="100"/>
		<rect x="1200" y="300" fill="#F2C528" width="100" height="100"/>
		<rect x="1100" y="600" fill="#D63A1C" width="100" height="100"/>
		<rect x="1100" y="500" fill="#FA9B20" width="100" height="100"/>
		<rect x="1100" y="400" fill="#FA9B20" width="100" height="100"/>
		<rect x="1100" y="300" fill="#F2C528" width="100" height="100"/>
		<rect x="1000" y="600" fill="#D63A1C" width="100" height="100"/>
		<rect x="1000" y="300" fill="#FA9B20" width="100" height="100"/>
		<rect x="1000" y="400" fill="#FA9B20" width="100" height="100"/>
		<rect x="1000" y="500" fill="#D63A1C" width="100" height="100"/>
	</g>
	<g>
	</g>
</g>
<g id="XMLID_4_">
	<g>
		<rect x="1500" y="100" width="100" height="100"/>
		<rect x="1600" width="100" height="100"/>
		<rect x="1700" width="100" height="100"/>
		<rect x="1800" width="100" height="100"/>
		<rect x="1900" y="100" width="100" height="100"/>
		<rect x="1500" y="200" fill="#F2C528" width="100" height="100"/>
		<rect x="1600" y="100" fill="#FA9B20" width="100" height="100"/>
		<rect x="1900" y="600" fill="#D63A1C" width="100" height="100"/>
		<rect x="1900" y="500" fill="#D63A1C" width="100" height="100"/>
		<rect x="1900" y="400" fill="#FA9B20" width="100" height="100"/>
		<rect x="1900" y="300" fill="#FA9B20" width="100" height="100"/>
		<rect x="1900" y="200" fill="#F2C528" width="100" height="100"/>
		<rect x="1800" y="600" fill="#D63A1C" width="100" height="100"/>
		<rect x="1800" y="500" fill="#D63A1C" width="100" height="100"/>
		<rect x="1800" y="400" fill="#FA9B20" width="100" height="100"/>
		<rect x="1800" y="300" fill="#F2C528" width="100" height="100"/>
		<rect x="1800" y="200" fill="#FA9B20" width="100" height="100"/>
		<rect x="1800" y="100" fill="#F2C528" width="100" height="100"/>
		<rect x="1700" y="600" fill="#D63A1C" width="100" height="100"/>
		<rect x="1700" y="500" fill="#FA9B20" width="100" height="100"/>
		<rect x="1700" y="400" fill="#FA9B20" width="100" height="100"/>
		<rect x="1700" y="300" fill="#F2C528" width="100" height="100"/>
		<rect x="1700" y="200" fill="#F2C528" width="100" height="100"/>
		<rect x="1700" y="100" fill="#FA9B20" width="100" height="100"/>
		<rect x="1600" y="600" fill="#D63A1C" width="100" height="100"/>
		<rect x="1600" y="500" fill="#FA9B20" width="100" height="100"/>
		<rect x="1600" y="400" fill="#FA9B20" width="100" height="100"/>
		<rect x="1600" y="300" fill="#F2C528" width="100" height="100"/>
		<rect x="1600" y="200" fill="#FA9B20" width="100" height="100"/>
		<rect x="1500" y="600" fill="#D63A1C" width="100" height="100"/>
		<rect x="1500" y="300" fill="#FA9B20" width="100" height="100"/>
		<rect x="1500" y="400" fill="#D63A1C" width="100" height="100"/>
		<rect x="1500" y="500" fill="#D63A1C" width="100" height="100"/>
	</g>
	<g>
	</g>
</g>
<g id="XMLID_5_">
	<g>
		<rect x="2000" y="200" width="100" height="100"/>
		<rect x="2000" y="100" width="100" height="100"/>
		<rect x="2100" width="100" height="100"/>
		<rect x="2300" width="100" height="100"/>
		<rect x="2400" y="100" width="100" height="100"/>
		<rect x="2400" y="200" width="100" height="100"/>
		<rect x="2300" y="200" fill="#F2C528" width="100" height="100"/>
		<rect x="2100" y="200" fill="#F2C528" width="100" height="100"/>
		<rect x="2200" y="200" fill="#FA9B20" width="100" height="100"/>
		<rect x="2300" y="100" fill="#FA9B20" width="100" height="100"/>
		<rect x="2200" fill="#FA9B20" width="100" height="100"/>
		<rect x="2100" y="100" fill="#FA9B20" width="100" height="100"/>
		<rect x="2400" y="600" fill="#D63A1C" width="100" height="100"/>
		<rect x="2400" y="500" fill="#D63A1C" width="100" height="100"/>
		<rect x="2400" y="400" fill="#D63A1C" width="100" height="100"/>
		<rect x="2400" y="300" fill="#F2C528" width="100" height="100"/>
		<rect x="2300" y="300" fill="#F2C528" width="100" height="100"/>
		<rect x="2300" y="400" fill="#D63A1C" width="100" height="100"/>
		<rect x="2300" y="500" fill="#D63A1C" width="100" height="100"/>
		<rect x="2300" y="600" fill="#D63A1C" width="100" height="100"/>
		<rect x="2200" y="600" fill="#D63A1C" width="100" height="100"/>
		<rect x="2200" y="500" fill="#FA9B20" width="100" height="100"/>
		<rect x="2200" y="400" fill="#FA9B20" width="100" height="100"/>
		<rect x="2200" y="300" fill="#F2C528" width="100" height="100"/>
		<rect x="2100" y="600" fill="#D63A1C" width="100" height="100"/>
		<rect x="2100" y="500" fill="#D63A1C" width="100" height="100"/>
		<rect x="2100" y="400" fill="#FA9B20" width="100" height="100"/>
		<rect x="2100" y="300" fill="#D63A1C" width="100" height="100"/>
		<rect x="2000" y="600" fill="#D63A1C" width="100" height="100"/>
		<rect x="2000" y="500" fill="#D63A1C" width="100" height="100"/>
		<rect x="2000" y="400" fill="#D63A1C" width="100" height="100"/>
		<rect x="2000" y="300" fill="#F2C528" width="100" height="100"/>
	</g>
	<g>
	</g>
</g>
<g id="XMLID_6_">
	<g>
		<rect x="2500" y="200" width="100" height="100"/>
		<rect x="2600" y="200" width="100" height="100"/>
		<rect x="2700" y="300" width="100" height="100"/>
		<rect x="2800" y="200" width="100" height="100"/>
		<rect x="2900" y="200" width="100" height="100"/>
		<rect x="2600" y="300" fill="#F2C528" width="100" height="100"/>
		<rect x="2800" y="100" fill="#F2C528" width="100" height="100"/>
		<rect x="2700" y="200" fill="#F2C528" width="100" height="100"/>
		<rect x="2600" y="100" fill="#F2C528" width="100" height="100"/>
		<rect x="2700" fill="#F2C528" width="100" height="100"/>
		<rect x="2900" y="600" fill="#D63A1C" width="100" height="100"/>
		<rect x="2900" y="500" fill="#D63A1C" width="100" height="100"/>
		<rect x="2900" y="400" fill="#FA9B20" width="100" height="100"/>
		<rect x="2900" y="300" fill="#F2C528" width="100" height="100"/>
		<rect x="2800" y="600" fill="#D63A1C" width="100" height="100"/>
		<rect x="2800" y="500" fill="#D63A1C" width="100" height="100"/>
		<rect x="2800" y="400" fill="#F2C528" width="100" height="100"/>
		<rect x="2800" y="300" fill="#F2C528" width="100" height="100"/>
		<rect x="2700" y="600" fill="#D63A1C" width="100" height="100"/>
		<rect x="2700" y="500" fill="#FA9B20" width="100" height="100"/>
		<rect x="2700" y="400" fill="#F2C528" width="100" height="100"/>
		<rect x="2600" y="600" fill="#D63A1C" width="100" height="100"/>
		<rect x="2600" y="500" fill="#FA9B20" width="100" height="100"/>
		<rect x="2600" y="400" fill="#F2C528" width="100" height="100"/>
		<rect x="2500" y="300" fill="#F2C528" width="100" height="100"/>
		<rect x="2500" y="400" fill="#FA9B20" width="100" height="100"/>
		<rect x="2500" y="500" fill="#D63A1C" width="100" height="100"/>
		<rect x="2500" y="600" fill="#D63A1C" width="100" height="100"/>
	</g>
	<g>
	</g>
</g>
<g id="XMLID_7_">
	<g>
		<rect x="3400" y="100" width="100" height="100"/>
		<rect x="3300" y="200" width="100" height="100"/>
		<rect x="3200" y="300" width="100" height="100"/>
		<rect x="3100" y="200" width="100" height="100"/>
		<rect x="3000" y="100" width="100" height="100"/>
		<rect x="3200" fill="#F2C528" width="100" height="100"/>
		<rect x="3400" y="200" fill="#F2C528" width="100" height="100"/>
		<rect x="3000" y="200" fill="#F2C528" width="100" height="100"/>
		<rect x="3400" y="600" fill="#D63A1C" width="100" height="100"/>
		<rect x="3400" y="500" fill="#D63A1C" width="100" height="100"/>
		<rect x="3400" y="400" fill="#FA9B20" width="100" height="100"/>
		<rect x="3400" y="300" fill="#F2C528" width="100" height="100"/>
		<rect x="3300" y="600" fill="#D63A1C" width="100" height="100"/>
		<rect x="3300" y="500" fill="#FA9B20" width="100" height="100"/>
		<rect x="3300" y="400" fill="#F2C528" width="100" height="100"/>
		<rect x="3300" y="300" fill="#F2C528" width="100" height="100"/>
		<rect x="3200" y="600" fill="#D63A1C" width="100" height="100"/>
		<rect x="3200" y="500" fill="#FA9B20" width="100" height="100"/>
		<rect x="3200" y="400" fill="#F2C528" width="100" height="100"/>
		<rect x="3100" y="600" fill="#D63A1C" width="100" height="100"/>
		<rect x="3100" y="500" fill="#FA9B20" width="100" height="100"/>
		<rect x="3100" y="400" fill="#F2C528" width="100" height="100"/>
		<rect x="3100" y="300" fill="#F2C528" width="100" height="100"/>
		<rect x="3000" y="600" fill="#D63A1C" width="100" height="100"/>
		<rect x="3000" y="500" fill="#D63A1C" width="100" height="100"/>
		<rect x="3000" y="400" fill="#FA9B20" width="100" height="100"/>
		<rect x="3000" y="300" fill="#FA9B20" width="100" height="100"/>
	</g>

</g>
</svg>
