<?xml version="1.0" encoding="utf-8"?>
<!-- Generator: Adobe Illustrator 16.0.0, SVG Export Plug-In . SVG Version: 6.00 Build 0)  -->
<!DOCTYPE svg PUBLIC "-//W3C//DTD SVG 1.1//EN" "http://www.w3.org/Graphics/SVG/1.1/DTD/svg11.dtd">
<svg version="1.1" id="Layer_1" xmlns="http://www.w3.org/2000/svg" xmlns:xlink="http://www.w3.org/1999/xlink" x="0px" y="0px"
	 width="4200px" height="800px" viewBox="0 0 4200 800" enable-background="new 0 0 4200 800" xml:space="preserve">
<g id="XMLID_1_">
	<g>
		<rect x="1099" y="700" fill="#FFFFFF" width="100" height="100"/>
		<rect x="1099" y="600" fill="#FFFFFF" width="100" height="100"/>
		<rect x="1099" y="100" fill="#FFFFFF" width="100" height="100"/>
		<rect x="999" y="500" fill="#FFFFFF" width="100" height="100"/>
		<rect x="999" y="200" fill="#FFFFFF" width="100" height="100"/>
		<rect x="899" y="400" fill="#FFFFFF" width="100" height="100"/>
		<rect x="899" y="200" fill="#FFFFFF" width="100" height="100"/>
		<rect x="899" y="100" fill="#FFFFFF" width="100" height="100"/>
		<rect x="899" y="0" fill="#FFFFFF" width="100" height="100"/>
		<rect x="799" y="500" fill="#FFFFFF" width="100" height="100"/>
		<rect x="799" y="400" fill="#FFFFFF" width="100" height="100"/>
		<rect x="799" y="300" fill="#FFFFFF" width="100" height="100"/>
		<rect x="799" y="200" fill="#FFFFFF" width="100" height="100"/>
		<rect x="699" y="600" fill="#FFFFFF" width="100" height="100"/>
		<rect x="699" y="200" fill="#FFFFFF" width="100" height="100"/>
		<rect x="599" y="700" fill="#FFFFFF" width="100" height="100"/>
		<rect x="599" y="300" fill="#FFFFFF" width="100" height="100"/>
	</g>
	<g>
	</g>
</g>
<g id="XMLID_2_">
	<g>
		<rect x="2199" y="400.001" fill="#FFFFFF" width="100" height="100"/>
		<rect x="2099" y="700.001" fill="#FFFFFF" width="100" height="100"/>
		<rect x="2099" y="600.001" fill="#FFFFFF" width="100" height="100"/>
		<rect x="2099" y="500.001" fill="#FFFFFF" width="100" height="100"/>
		<rect x="2099" y="400.001" fill="#FFFFFF" width="100" height="100"/>
		<rect x="2099" y="200.001" fill="#FFFFFF" width="100" height="100"/>
		<rect x="2099" y="100.001" fill="#FFFFFF" width="100" height="100"/>
		<rect x="2099" y="0.001" fill="#FFFFFF" width="100" height="100"/>
		<rect x="1999" y="600.001" fill="#FFFFFF" width="100" height="100"/>
		<rect x="1999" y="500.001" fill="#FFFFFF" width="100" height="100"/>
		<rect x="1999" y="400.001" fill="#FFFFFF" width="100" height="100"/>
		<rect x="1999" y="300.001" fill="#FFFFFF" width="100" height="100"/>
		<rect x="1999" y="200.001" fill="#FFFFFF" width="100" height="100"/>
		<rect x="1899" y="600.001" fill="#FFFFFF" width="100" height="100"/>
		<rect x="1899" y="300.001" fill="#FFFFFF" width="100" height="100"/>
		<rect x="1799" y="400.001" fill="#FFFFFF" width="100" height="100"/>
	</g>
	<g>
	</g>
</g>
<g id="XMLID_3_">
	<g>
		<rect x="2799" y="600" fill="#FFFFFF" width="100" height="100"/>
		<rect x="2799" y="500" fill="#FFFFFF" width="100" height="100"/>
		<rect x="2699" y="600" fill="#FFFFFF" width="100" height="100"/>
		<rect x="2699" y="500" fill="#FFFFFF" width="100" height="100"/>
		<rect x="2699" y="300" fill="#FFFFFF" width="100" height="100"/>
		<rect x="2699" y="200" fill="#FFFFFF" width="100" height="100"/>
		<rect x="2699" y="100" fill="#FFFFFF" width="100" height="100"/>
		<rect x="2599" y="700" fill="#FFFFFF" width="100" height="100"/>
		<rect x="2599" y="500" fill="#FFFFFF" width="100" height="100"/>
		<rect x="2599" y="400" fill="#FFFFFF" width="100" height="100"/>
		<rect x="2599" y="300" fill="#FFFFFF" width="100" height="100"/>
		<rect x="2599" y="200" fill="#FFFFFF" width="100" height="100"/>
		<rect x="2499" y="400" fill="#FFFFFF" width="100" height="100"/>
		<rect x="2499" y="300" fill="#FFFFFF" width="100" height="100"/>
	</g>
	<g>
	</g>
</g>
<g id="XMLID_4_">
	<g>
		<rect x="3399" y="500" fill="#FFFFFF" width="100" height="100"/>
		<rect x="3399" y="400" fill="#FFFFFF" width="100" height="100"/>
		<rect x="3299" y="600" fill="#FFFFFF" width="100" height="100"/>
		<rect x="3299" y="400" fill="#FFFFFF" width="100" height="100"/>
		<rect x="3299" y="200" fill="#FFFFFF" width="100" height="100"/>
		<rect x="3299" y="100" fill="#FFFFFF" width="100" height="100"/>
		<rect x="3299" fill="#FFFFFF" width="100" height="100"/>
		<rect x="3199" y="500" fill="#FFFFFF" width="100" height="100"/>
		<rect x="3199" y="400" fill="#FFFFFF" width="100" height="100"/>
		<rect x="3199" y="300" fill="#FFFFFF" width="100" height="100"/>
		<rect x="3199" y="200" fill="#FFFFFF" width="100" height="100"/>
		<rect x="3099" y="700" fill="#FFFFFF" width="100" height="100"/>
		<rect x="3099" y="600" fill="#FFFFFF" width="100" height="100"/>
		<rect x="3099" y="300" fill="#FFFFFF" width="100" height="100"/>
		<rect x="2999" y="400" fill="#FFFFFF" width="100" height="100"/>
	</g>
	<g>
	</g>
</g>
<g id="XMLID_5_">
	<g>
		<rect x="4099" y="600.001" fill="#FFFFFF" width="100" height="100"/>
		<rect x="4099" y="500.001" fill="#FFFFFF" width="100" height="100"/>
		<rect x="4099" y="300.001" fill="#FFFFFF" width="100" height="100"/>
		<rect x="3999" y="400.001" fill="#FFFFFF" width="100" height="100"/>
		<rect x="3999" y="200.001" fill="#FFFFFF" width="100" height="100"/>
		<rect x="3899" y="400.001" fill="#FFFFFF" width="100" height="100"/>
		<rect x="3899" y="200.001" fill="#FFFFFF" width="100" height="100"/>
		<rect x="3899" y="100.001" fill="#FFFFFF" width="100" height="100"/>
		<rect x="3899" y="0.001" fill="#FFFFFF" width="100" height="100"/>
		<rect x="3799" y="600.001" fill="#FFFFFF" width="100" height="100"/>
		<rect x="3799" y="500.001" fill="#FFFFFF" width="100" height="100"/>
		<rect x="3799" y="400.001" fill="#FFFFFF" width="100" height="100"/>
		<rect x="3799" y="300.001" fill="#FFFFFF" width="100" height="100"/>
		<rect x="3799" y="200.001" fill="#FFFFFF" width="100" height="100"/>
		<rect x="3699" y="700.001" fill="#FFFFFF" width="100" height="100"/>
		<rect x="3699" y="200.001" fill="#FFFFFF" width="100" height="100"/>
		<rect x="3599" y="300.001" fill="#FFFFFF" width="100" height="100"/>
	</g>
	<g>
	</g>
</g>
<g id="XMLID_6_">
	<g>
		<rect x="1699" y="300.001" fill="#FFFFFF" width="100" height="100"/>
		<rect x="1599" y="700.001" fill="#FFFFFF" width="100" height="100"/>
		<rect x="1599" y="600.001" fill="#FFFFFF" width="100" height="100"/>
		<rect x="1599" y="500.001" fill="#FFFFFF" width="100" height="100"/>
		<rect x="1599" y="300.001" fill="#FFFFFF" width="100" height="100"/>
		<rect x="1499" y="400.001" fill="#FFFFFF" width="100" height="100"/>
		<rect x="1499" y="200.001" fill="#FFFFFF" width="100" height="100"/>
		<rect x="1499" y="100.001" fill="#FFFFFF" width="100" height="100"/>
		<rect x="1499" y="0.001" fill="#FFFFFF" width="100" height="100"/>
		<rect x="1399" y="600.001" fill="#FFFFFF" width="100" height="100"/>
		<rect x="1399" y="500.001" fill="#FFFFFF" width="100" height="100"/>
		<rect x="1399" y="400.001" fill="#FFFFFF" width="100" height="100"/>
		<rect x="1399" y="300.001" fill="#FFFFFF" width="100" height="100"/>
		<rect x="1399" y="200.001" fill="#FFFFFF" width="100" height="100"/>
		<rect x="1299" y="700.001" fill="#FFFFFF" width="100" height="100"/>
		<rect x="1299" y="200.001" fill="#FFFFFF" width="100" height="100"/>
		<rect x="1199" y="300.001" fill="#FFFFFF" width="100" height="100"/>
	</g>
	<g>
	</g>
</g>
<g id="XMLID_7_">
	<g>
		<rect x="500" y="700.002" fill="#FFFFFF" width="100" height="100"/>
		<rect x="500" y="600.002" fill="#FFFFFF" width="100" height="100"/>
		<rect x="500" y="100.001" fill="#FFFFFF" width="100" height="100"/>
		<rect x="400" y="500.002" fill="#FFFFFF" width="100" height="100"/>
		<rect x="400" y="200.001" fill="#FFFFFF" width="100" height="100"/>
		<rect x="300" y="400.001" fill="#FFFFFF" width="100" height="100"/>
		<rect x="300" y="200.001" fill="#FFFFFF" width="100" height="100"/>
		<rect x="300" y="100.001" fill="#FFFFFF" width="100" height="100"/>
		<rect x="300" y="0.001" fill="#FFFFFF" width="100" height="100"/>
		<rect x="200" y="500.002" fill="#FFFFFF" width="100" height="100"/>
		<rect x="200" y="400.001" fill="#FFFFFF" width="100" height="100"/>
		<rect x="200" y="300.001" fill="#FFFFFF" width="100" height="100"/>
		<rect x="200" y="200.001" fill="#FFFFFF" width="100" height="100"/>
		<rect x="100" y="600.002" fill="#FFFFFF" width="100" height="100"/>
		<rect x="100" y="200.001" fill="#FFFFFF" width="100" height="100"/>
		<rect y="700.002" fill="#FFFFFF" width="100" height="100"/>
		<rect y="300.001" fill="#FFFFFF" width="100" height="100"/>
	</g>
	<g>
	</g>
</g>
</svg>
