<?xml version="1.0" encoding="utf-8"?>
<!-- Generator: Adobe Illustrator 16.0.0, SVG Export Plug-In . SVG Version: 6.00 Build 0)  -->
<!DOCTYPE svg PUBLIC "-//W3C//DTD SVG 1.1//EN" "http://www.w3.org/Graphics/SVG/1.1/DTD/svg11.dtd">
<svg version="1.1" id="Layer_1" xmlns="http://www.w3.org/2000/svg" xmlns:xlink="http://www.w3.org/1999/xlink" x="0px" y="0px"
	 width="600px" height="800px" viewBox="0 0 600 800" enable-background="new 0 0 600 800" xml:space="preserve">
<g id="XMLID_1_">
	<g>
		<rect x="499.5" y="700.5" fill="#FFFFFF" width="100" height="100"/>
		<rect x="499.5" y="600.5" fill="#FFFFFF" width="100" height="100"/>
		<rect x="499.5" y="100.5" fill="#FFFFFF" width="100" height="100"/>
		<rect x="399.5" y="500.5" fill="#FFFFFF" width="100" height="100"/>
		<rect x="399.5" y="200.5" fill="#FFFFFF" width="100" height="100"/>
		<rect x="299.5" y="400.5" fill="#FFFFFF" width="100" height="100"/>
		<rect x="299.5" y="200.5" fill="#FFFFFF" width="100" height="100"/>
		<rect x="299.5" y="100.5" fill="#FFFFFF" width="100" height="100"/>
		<rect x="299.5" y="0.5" fill="#FFFFFF" width="100" height="100"/>
		<rect x="199.5" y="500.5" fill="#FFFFFF" width="100" height="100"/>
		<rect x="199.5" y="400.5" fill="#FFFFFF" width="100" height="100"/>
		<rect x="199.5" y="300.5" fill="#FFFFFF" width="100" height="100"/>
		<rect x="199.5" y="200.5" fill="#FFFFFF" width="100" height="100"/>
		<rect x="99.5" y="600.5" fill="#FFFFFF" width="100" height="100"/>
		<rect x="99.5" y="200.5" fill="#FFFFFF" width="100" height="100"/>
		<rect x="-0.5" y="700.5" fill="#FFFFFF" width="100" height="100"/>
		<rect x="-0.5" y="300.5" fill="#FFFFFF" width="100" height="100"/>
	</g>
	<g>
	</g>
</g>
</svg>
