<?xml version="1.0" encoding="utf-8"?>
<!-- Generator: Adobe Illustrator 16.0.0, SVG Export Plug-In . SVG Version: 6.00 Build 0)  -->
<!DOCTYPE svg PUBLIC "-//W3C//DTD SVG 1.1//EN" "http://www.w3.org/Graphics/SVG/1.1/DTD/svg11.dtd">
<svg version="1.1" id="Layer_1" xmlns="http://www.w3.org/2000/svg" xmlns:xlink="http://www.w3.org/1999/xlink" x="0px" y="0px"
	 width="600px" height="1200px" viewBox="0 0 600 1200" enable-background="new 0 0 600 1200" xml:space="preserve">
<g>
	<g id="XMLID_2_">
		<g>
			<rect x="550" y="1150" fill="#409995" width="50" height="50"/>
			<rect x="550" y="1100" fill="#409995" width="50" height="50"/>
			<rect x="550" y="1050" fill="#2E6864" width="50" height="50"/>
			<rect x="550" y="1000" fill="#409995" width="50" height="50"/>
			<rect x="550" y="950" fill="#2E6864" width="50" height="50"/>
			<rect x="550" y="900" fill="#2E6864" width="50" height="50"/>
			<rect x="550" y="850" fill="#214743" width="50" height="50"/>
			<rect x="550" y="800" fill="#214743" width="50" height="50"/>
			<rect x="550" y="750" fill="#214743" width="50" height="50"/>
			<rect x="550" y="700" width="50" height="50"/>
			<rect x="550" y="650" fill="#EB8600" width="50" height="50"/>
			<rect x="550" y="600" fill="#EB8600" width="50" height="50"/>
			<rect x="550" y="550" fill="#EB8600" width="50" height="50"/>
			<rect x="550" y="500" fill="#EB8600" width="50" height="50"/>
			<rect x="550" y="450" fill="#AF4B00" width="50" height="50"/>
			<rect x="550" y="400" width="50" height="50"/>
			<rect x="550" y="350" fill="#285600" width="50" height="50"/>
			<rect x="550" y="300" fill="#285600" width="50" height="50"/>
			<rect x="550" y="250" fill="#429600" width="50" height="50"/>
			<rect x="550" y="200" fill="#429600" width="50" height="50"/>
			<rect x="550" y="150" fill="#48B000" width="50" height="50"/>
			<rect x="550" y="100" fill="#48B000" width="50" height="50"/>
			<rect x="550" y="50" fill="#48B000" width="50" height="50"/>
			<rect x="550" fill="#070707" width="50" height="50"/>
			<rect x="500" y="1150" fill="#409995" width="50" height="50"/>
			<rect x="500" y="1100" fill="#409995" width="50" height="50"/>
			<rect x="500" y="1050" fill="#2E6864" width="50" height="50"/>
			<rect x="500" y="1000" fill="#409995" width="50" height="50"/>
			<rect x="500" y="950" fill="#2E6864" width="50" height="50"/>
			<rect x="500" y="900" fill="#2E6864" width="50" height="50"/>
			<rect x="500" y="850" fill="#214743" width="50" height="50"/>
			<rect x="500" y="800" fill="#214743" width="50" height="50"/>
			<rect x="500" y="750" fill="#214743" width="50" height="50"/>
			<rect x="500" y="700" width="50" height="50"/>
			<rect x="500" y="650" fill="#EB8600" width="50" height="50"/>
			<rect x="500" y="600" fill="#EB8600" width="50" height="50"/>
			<rect x="500" y="550" fill="#EB8600" width="50" height="50"/>
			<rect x="500" y="500" fill="#AF4B00" width="50" height="50"/>
			<rect x="500" y="450" width="50" height="50"/>
			<rect x="500" y="400" fill="#285600" width="50" height="50"/>
			<rect x="500" y="350" fill="#285600" width="50" height="50"/>
			<rect x="500" y="300" fill="#429600" width="50" height="50"/>
			<rect x="500" y="250" fill="#429600" width="50" height="50"/>
			<rect x="500" y="200" fill="#48B000" width="50" height="50"/>
			<rect x="500" y="150" fill="#429600" width="50" height="50"/>
			<rect x="500" y="100" fill="#48B000" width="50" height="50"/>
			<rect x="500" y="50" fill="#48B000" width="50" height="50"/>
			<rect x="500" fill="#070707" width="50" height="50"/>
			<rect x="450" y="1150" fill="#409995" width="50" height="50"/>
			<rect x="450" y="1100" fill="#409995" width="50" height="50"/>
			<rect x="450" y="1050" fill="#2E6864" width="50" height="50"/>
			<rect x="450" y="1000" fill="#409995" width="50" height="50"/>
			<rect x="450" y="950" fill="#2E6864" width="50" height="50"/>
			<rect x="450" y="900" fill="#2E6864" width="50" height="50"/>
			<rect x="450" y="850" fill="#214743" width="50" height="50"/>
			<rect x="450" y="800" fill="#214743" width="50" height="50"/>
			<rect x="450" y="750" fill="#214743" width="50" height="50"/>
			<rect x="450" y="700" width="50" height="50"/>
			<rect x="450" y="650" fill="#EB8600" width="50" height="50"/>
			<rect x="450" y="600" fill="#EB8600" width="50" height="50"/>
			<rect x="450" y="550" fill="#AF4B00" width="50" height="50"/>
			<rect x="450" y="500" width="50" height="50"/>
			<rect x="450" y="450" fill="#285600" width="50" height="50"/>
			<rect x="450" y="400" fill="#285600" width="50" height="50"/>
			<rect x="450" y="350" fill="#429600" width="50" height="50"/>
			<rect x="450" y="300" fill="#285600" width="50" height="50"/>
			<rect x="450" y="250" fill="#429600" width="50" height="50"/>
			<rect x="450" y="200" fill="#429600" width="50" height="50"/>
			<rect x="450" y="150" fill="#48B000" width="50" height="50"/>
			<rect x="450" y="100" fill="#48B000" width="50" height="50"/>
			<rect x="450" y="50" fill="#48B000" width="50" height="50"/>
			<rect x="450" fill="#070707" width="50" height="50"/>
			<rect x="400" y="1150" fill="#409995" width="50" height="50"/>
			<rect x="400" y="1100" fill="#409995" width="50" height="50"/>
			<rect x="400" y="1050" fill="#2E6864" width="50" height="50"/>
			<rect x="400" y="1000" fill="#409995" width="50" height="50"/>
			<rect x="400" y="950" fill="#2E6864" width="50" height="50"/>
			<rect x="400" y="900" fill="#2E6864" width="50" height="50"/>
			<rect x="400" y="850" fill="#214743" width="50" height="50"/>
			<rect x="400" y="800" fill="#214743" width="50" height="50"/>
			<rect x="400" y="750" fill="#214743" width="50" height="50"/>
			<rect x="400" y="700" width="50" height="50"/>
			<rect x="400" y="650" fill="#EB8600" width="50" height="50"/>
			<rect x="400" y="600" fill="#AF4B00" width="50" height="50"/>
			<rect x="400" y="550" fill="#AF4B00" width="50" height="50"/>
			<rect x="400" y="500" width="50" height="50"/>
			<rect x="400" y="450" fill="#285600" width="50" height="50"/>
			<rect x="400" y="400" fill="#285600" width="50" height="50"/>
			<rect x="400" y="350" fill="#429600" width="50" height="50"/>
			<rect x="400" y="300" fill="#285600" width="50" height="50"/>
			<rect x="400" y="250" fill="#429600" width="50" height="50"/>
			<rect x="400" y="200" fill="#48B000" width="50" height="50"/>
			<rect x="400" y="150" fill="#48B000" width="50" height="50"/>
			<rect x="400" y="100" fill="#48B000" width="50" height="50"/>
			<rect x="400" y="50" fill="#48B000" width="50" height="50"/>
			<rect x="400" fill="#070707" width="50" height="50"/>
			<rect x="350" y="1150" fill="#409995" width="50" height="50"/>
			<rect x="350" y="1100" fill="#409995" width="50" height="50"/>
			<rect x="350" y="1050" fill="#2E6864" width="50" height="50"/>
			<rect x="350" y="1000" fill="#409995" width="50" height="50"/>
			<rect x="350" y="950" fill="#2E6864" width="50" height="50"/>
			<rect x="350" y="900" fill="#2E6864" width="50" height="50"/>
			<rect x="350" y="850" fill="#214743" width="50" height="50"/>
			<rect x="350" y="800" fill="#214743" width="50" height="50"/>
			<rect x="350" y="750" fill="#214743" width="50" height="50"/>
			<rect x="350" y="700" width="50" height="50"/>
			<rect x="350" y="650" fill="#AF4B00" width="50" height="50"/>
			<rect x="350" y="600" fill="#A5A5A5" width="50" height="50"/>
			<rect x="350" y="550" fill="#EB8600" width="50" height="50"/>
			<rect x="350" y="500" fill="#AF4B00" width="50" height="50"/>
			<rect x="350" y="450" width="50" height="50"/>
			<rect x="350" y="400" fill="#285600" width="50" height="50"/>
			<rect x="350" y="350" fill="#285600" width="50" height="50"/>
			<rect x="350" y="300" fill="#429600" width="50" height="50"/>
			<rect x="350" y="250" fill="#429600" width="50" height="50"/>
			<rect x="350" y="200" fill="#429600" width="50" height="50"/>
			<rect x="350" y="150" fill="#48B000" width="50" height="50"/>
			<rect x="350" y="100" fill="#48B000" width="50" height="50"/>
			<rect x="350" y="50" fill="#48B000" width="50" height="50"/>
			<rect x="350" fill="#070707" width="50" height="50"/>
			<rect x="300" y="1150" fill="#409995" width="50" height="50"/>
			<rect x="300" y="1100" fill="#409995" width="50" height="50"/>
			<rect x="300" y="1050" fill="#2E6864" width="50" height="50"/>
			<rect x="300" y="1000" fill="#409995" width="50" height="50"/>
			<rect x="300" y="950" fill="#2E6864" width="50" height="50"/>
			<rect x="300" y="900" fill="#2E6864" width="50" height="50"/>
			<rect x="300" y="850" fill="#214743" width="50" height="50"/>
			<rect x="300" y="800" fill="#214743" width="50" height="50"/>
			<rect x="300" y="750" fill="#214743" width="50" height="50"/>
			<rect x="300" y="700" width="50" height="50"/>
			<rect x="300" y="650" fill="#AF4B00" width="50" height="50"/>
			<rect x="300" y="600" fill="#A5A5A5" width="50" height="50"/>
			<rect x="300" y="550" fill="#EB8600" width="50" height="50"/>
			<rect x="300" y="500" fill="#EB8600" width="50" height="50"/>
			<rect x="300" y="450" fill="#AF4B00" width="50" height="50"/>
			<rect x="300" y="400" width="50" height="50"/>
			<rect x="300" y="350" fill="#285600" width="50" height="50"/>
			<rect x="300" y="300" fill="#285600" width="50" height="50"/>
			<rect x="300" y="250" fill="#429600" width="50" height="50"/>
			<rect x="300" y="200" fill="#48B000" width="50" height="50"/>
			<rect x="300" y="150" fill="#429600" width="50" height="50"/>
			<rect x="300" y="100" fill="#48B000" width="50" height="50"/>
			<rect x="300" y="50" fill="#48B000" width="50" height="50"/>
			<rect x="300" fill="#070707" width="50" height="50"/>
			<rect x="250" y="1150" fill="#409995" width="50" height="50"/>
			<rect x="250" y="1100" fill="#409995" width="50" height="50"/>
			<rect x="250" y="1050" fill="#2E6864" width="50" height="50"/>
			<rect x="250" y="1000" fill="#409995" width="50" height="50"/>
			<rect x="250" y="950" fill="#2E6864" width="50" height="50"/>
			<rect x="250" y="900" fill="#2E6864" width="50" height="50"/>
			<rect x="250" y="850" fill="#214743" width="50" height="50"/>
			<rect x="250" y="800" fill="#214743" width="50" height="50"/>
			<rect x="250" y="750" fill="#214743" width="50" height="50"/>
			<rect x="250" y="700" width="50" height="50"/>
			<rect x="250" y="650" fill="#EB8600" width="50" height="50"/>
			<rect x="250" y="600" fill="#AF4B00" width="50" height="50"/>
			<rect x="250" y="550" fill="#EB8600" width="50" height="50"/>
			<rect x="250" y="500" fill="#EB8600" width="50" height="50"/>
			<rect x="250" y="450" fill="#EB8600" width="50" height="50"/>
			<rect x="250" y="400" fill="#AF4B00" width="50" height="50"/>
			<rect x="250" y="350" width="50" height="50"/>
			<rect x="250" y="300" fill="#285600" width="50" height="50"/>
			<rect x="250" y="250" fill="#429600" width="50" height="50"/>
			<rect x="250" y="200" fill="#429600" width="50" height="50"/>
			<rect x="250" y="150" fill="#48B000" width="50" height="50"/>
			<rect x="250" y="100" fill="#48B000" width="50" height="50"/>
			<rect x="250" y="50" fill="#48B000" width="50" height="50"/>
			<rect x="250" fill="#070707" width="50" height="50"/>
			<rect x="200" y="1150" fill="#409995" width="50" height="50"/>
			<rect x="200" y="1100" fill="#409995" width="50" height="50"/>
			<rect x="200" y="1050" fill="#2E6864" width="50" height="50"/>
			<rect x="200" y="1000" fill="#409995" width="50" height="50"/>
			<rect x="200" y="950" fill="#2E6864" width="50" height="50"/>
			<rect x="200" y="900" fill="#2E6864" width="50" height="50"/>
			<rect x="200" y="850" fill="#214743" width="50" height="50"/>
			<rect x="200" y="800" fill="#214743" width="50" height="50"/>
			<rect x="200" y="750" fill="#214743" width="50" height="50"/>
			<rect x="200" y="700" width="50" height="50"/>
			<rect x="200" y="650" fill="#EB8600" width="50" height="50"/>
			<rect x="200" y="600" fill="#EB8600" width="50" height="50"/>
			<rect x="200" y="550" fill="#EB8600" width="50" height="50"/>
			<rect x="200" y="500" fill="#EB8600" width="50" height="50"/>
			<rect x="200" y="450" fill="#AF4B00" width="50" height="50"/>
			<rect x="200" y="400" width="50" height="50"/>
			<rect x="200" y="350" fill="#285600" width="50" height="50"/>
			<rect x="200" y="300" fill="#285600" width="50" height="50"/>
			<rect x="200" y="250" fill="#429600" width="50" height="50"/>
			<rect x="200" y="200" fill="#48B000" width="50" height="50"/>
			<rect x="200" y="150" fill="#429600" width="50" height="50"/>
			<rect x="200" y="100" fill="#48B000" width="50" height="50"/>
			<rect x="200" y="50" fill="#48B000" width="50" height="50"/>
			<rect x="200" fill="#070707" width="50" height="50"/>
			<rect x="150" y="1150" fill="#409995" width="50" height="50"/>
			<rect x="150" y="1100" fill="#409995" width="50" height="50"/>
			<rect x="150" y="1050" fill="#2E6864" width="50" height="50"/>
			<rect x="150" y="1000" fill="#409995" width="50" height="50"/>
			<rect x="150" y="950" fill="#2E6864" width="50" height="50"/>
			<rect x="150" y="900" fill="#2E6864" width="50" height="50"/>
			<rect x="150" y="850" fill="#214743" width="50" height="50"/>
			<rect x="150" y="800" fill="#214743" width="50" height="50"/>
			<rect x="150" y="750" fill="#214743" width="50" height="50"/>
			<rect x="150" y="700" width="50" height="50"/>
			<rect x="150" y="650" fill="#EB8600" width="50" height="50"/>
			<rect x="150" y="600" fill="#EB8600" width="50" height="50"/>
			<rect x="150" y="550" fill="#EB8600" width="50" height="50"/>
			<rect x="150" y="500" fill="#AF4B00" width="50" height="50"/>
			<rect x="150" y="450" width="50" height="50"/>
			<rect x="150" y="400" fill="#285600" width="50" height="50"/>
			<rect x="150" y="350" fill="#285600" width="50" height="50"/>
			<rect x="150" y="300" fill="#429600" width="50" height="50"/>
			<rect x="150" y="250" fill="#429600" width="50" height="50"/>
			<rect x="150" y="200" fill="#429600" width="50" height="50"/>
			<rect x="150" y="150" fill="#48B000" width="50" height="50"/>
			<rect x="150" y="100" fill="#48B000" width="50" height="50"/>
			<rect x="150" y="50" fill="#48B000" width="50" height="50"/>
			<rect x="150" fill="#070707" width="50" height="50"/>
			<rect x="100" y="1150" fill="#409995" width="50" height="50"/>
			<rect x="100" y="1100" fill="#409995" width="50" height="50"/>
			<rect x="100" y="1050" fill="#2E6864" width="50" height="50"/>
			<rect x="100" y="1000" fill="#409995" width="50" height="50"/>
			<rect x="100" y="950" fill="#2E6864" width="50" height="50"/>
			<rect x="100" y="900" fill="#2E6864" width="50" height="50"/>
			<rect x="100" y="850" fill="#214743" width="50" height="50"/>
			<rect x="100" y="800" fill="#214743" width="50" height="50"/>
			<rect x="100" y="750" fill="#214743" width="50" height="50"/>
			<rect x="100" y="700" width="50" height="50"/>
			<rect x="100" y="650" fill="#EB8600" width="50" height="50"/>
			<rect x="100" y="600" fill="#EB8600" width="50" height="50"/>
			<rect x="100" y="550" fill="#EB8600" width="50" height="50"/>
			<rect x="100" y="500" fill="#AF4B00" width="50" height="50"/>
			<rect x="100" y="450" width="50" height="50"/>
			<rect x="100" y="400" fill="#285600" width="50" height="50"/>
			<rect x="100" y="350" fill="#285600" width="50" height="50"/>
			<rect x="100" y="300" fill="#429600" width="50" height="50"/>
			<rect x="100" y="250" fill="#429600" width="50" height="50"/>
			<rect x="100" y="200" fill="#48B000" width="50" height="50"/>
			<rect x="100" y="150" fill="#429600" width="50" height="50"/>
			<rect x="100" y="100" fill="#48B000" width="50" height="50"/>
			<rect x="100" y="50" fill="#48B000" width="50" height="50"/>
			<rect x="100" fill="#070707" width="50" height="50"/>
			<rect x="50" y="1150" fill="#409995" width="50" height="50"/>
			<rect x="50" y="1100" fill="#409995" width="50" height="50"/>
			<rect x="50" y="1050" fill="#2E6864" width="50" height="50"/>
			<rect x="50" y="1000" fill="#409995" width="50" height="50"/>
			<rect x="50" y="950" fill="#2E6864" width="50" height="50"/>
			<rect x="50" y="900" fill="#2E6864" width="50" height="50"/>
			<rect x="50" y="850" fill="#214743" width="50" height="50"/>
			<rect x="50" y="800" fill="#214743" width="50" height="50"/>
			<rect x="50" y="750" fill="#214743" width="50" height="50"/>
			<rect x="50" y="700" width="50" height="50"/>
			<rect x="50" y="650" fill="#EB8600" width="50" height="50"/>
			<rect x="50" y="600" fill="#EB8600" width="50" height="50"/>
			<rect x="50" y="550" fill="#EB8600" width="50" height="50"/>
			<rect x="50" y="500" fill="#EB8600" width="50" height="50"/>
			<rect x="50" y="450" fill="#AF4B00" width="50" height="50"/>
			<rect x="50" y="400" width="50" height="50"/>
			<rect x="50" y="350" fill="#285600" width="50" height="50"/>
			<rect x="50" y="300" fill="#285600" width="50" height="50"/>
			<rect x="50" y="250" fill="#429600" width="50" height="50"/>
			<rect x="50" y="200" fill="#429600" width="50" height="50"/>
			<rect x="50" y="150" fill="#48B000" width="50" height="50"/>
			<rect x="50" y="100" fill="#48B000" width="50" height="50"/>
			<rect x="50" y="50" fill="#48B000" width="50" height="50"/>
			<rect x="50" fill="#070707" width="50" height="50"/>
			<rect y="1150" fill="#409995" width="50" height="50"/>
			<rect y="1100" fill="#409995" width="50" height="50"/>
			<rect y="1050" fill="#2E6864" width="50" height="50"/>
			<rect y="1000" fill="#409995" width="50" height="50"/>
			<rect y="950" fill="#2E6864" width="50" height="50"/>
			<rect y="900" fill="#2E6864" width="50" height="50"/>
			<rect y="850" fill="#214743" width="50" height="50"/>
			<rect y="800" fill="#214743" width="50" height="50"/>
			<rect y="750" fill="#214743" width="50" height="50"/>
			<rect y="700" width="50" height="50"/>
			<rect y="650" fill="#EB8600" width="50" height="50"/>
			<rect y="600" fill="#EB8600" width="50" height="50"/>
			<rect y="550" fill="#EB8600" width="50" height="50"/>
			<rect y="500" fill="#EB8600" width="50" height="50"/>
			<rect y="450" fill="#EB8600" width="50" height="50"/>
			<rect y="400" fill="#AF4B00" width="50" height="50"/>
			<rect y="350" width="50" height="50"/>
			<rect y="300" fill="#285600" width="50" height="50"/>
			<rect y="250" fill="#429600" width="50" height="50"/>
			<rect y="200" fill="#48B000" width="50" height="50"/>
			<rect y="150" fill="#429600" width="50" height="50"/>
			<rect y="100" fill="#48B000" width="50" height="50"/>
			<rect y="50" fill="#48B000" width="50" height="50"/>
			<rect fill="#070707" width="50" height="50"/>
		</g>
		<g>
		</g>
	</g>
</g>
</svg>
