<?xml version="1.0" encoding="utf-8"?>
<!-- Generator: Adobe Illustrator 16.0.0, SVG Export Plug-In . SVG Version: 6.00 Build 0)  -->
<!DOCTYPE svg PUBLIC "-//W3C//DTD SVG 1.1//EN" "http://www.w3.org/Graphics/SVG/1.1/DTD/svg11.dtd">
<svg version="1.1" id="Layer_1" xmlns="http://www.w3.org/2000/svg" xmlns:xlink="http://www.w3.org/1999/xlink" x="0px" y="0px"
	 width="600px" height="500px" viewBox="0 0 600 500" enable-background="new 0 0 600 500" xml:space="preserve">
<g id="XMLID_1_">
	<g>
		<rect x="499.5" y="400.5" fill="#F7931E" width="100" height="100"/>
		<rect x="499.5" y="300.5" fill="#39B54A" width="100" height="100"/>
		<rect x="499.5" y="200.5" fill="#39B54A" width="100" height="100"/>
		<rect x="499.5" y="100.5" fill="#009245" width="100" height="100"/>
		<rect x="499.5" y="0.5" fill="#009245" width="100" height="100"/>
		<rect x="399.5" y="400.5" fill="#F7931E" width="100" height="100"/>
		<rect x="399.5" y="300.5" fill="#39B54A" width="100" height="100"/>
		<rect x="399.5" y="200.5" fill="#009245" width="100" height="100"/>
		<rect x="399.5" y="100.5" fill="#009245" width="100" height="100"/>
		<rect x="399.5" y="0.5" fill="#009245" width="100" height="100"/>
		<rect x="299.5" y="400.5" fill="#F7931E" width="100" height="100"/>
		<rect x="299.5" y="300.5" fill="#39B54A" width="100" height="100"/>
		<rect x="299.5" y="200.5" fill="#39B54A" width="100" height="100"/>
		<rect x="299.5" y="100.5" fill="#009245" width="100" height="100"/>
		<rect x="299.5" y="0.5" fill="#009245" width="100" height="100"/>
		<rect x="199.5" y="400.5" fill="#F7931E" width="100" height="100"/>
		<rect x="199.5" y="300.5" fill="#39B54A" width="100" height="100"/>
		<rect x="199.5" y="200.5" fill="#009245" width="100" height="100"/>
		<rect x="199.5" y="100.5" fill="#009245" width="100" height="100"/>
		<rect x="199.5" y="0.5" fill="#009245" width="100" height="100"/>
		<rect x="99.5" y="400.5" fill="#F7931E" width="100" height="100"/>
		<rect x="99.5" y="300.5" fill="#39B54A" width="100" height="100"/>
		<rect x="99.5" y="200.5" fill="#39B54A" width="100" height="100"/>
		<rect x="99.5" y="100.5" fill="#009245" width="100" height="100"/>
		<rect x="99.5" y="0.5" fill="#009245" width="100" height="100"/>
		<rect x="-0.5" y="400.5" fill="#F7931E" width="100" height="100"/>
		<rect x="-0.5" y="300.5" fill="#39B54A" width="100" height="100"/>
		<rect x="-0.5" y="200.5" fill="#009245" width="100" height="100"/>
		<rect x="-0.5" y="100.5" fill="#009245" width="100" height="100"/>
		<rect x="-0.5" y="0.5" fill="#009245" width="100" height="100"/>
	</g>
	<g>
		<polyline fill="none" points="-0.5,100.5 -0.5,0.5 99.5,0.5 		"/>
		<polyline fill="none" points="99.5,100.5 99.5,0.5 199.5,0.5 		"/>
		<polyline fill="none" points="199.5,100.5 199.5,0.5 299.5,0.5 		"/>
		<polyline fill="none" points="299.5,100.5 299.5,0.5 399.5,0.5 		"/>
		<polyline fill="none" points="399.5,100.5 399.5,0.5 499.5,0.5 		"/>
		<polyline fill="none" points="499.5,100.5 499.5,0.5 599.5,0.5 599.5,100.5 		"/>
		<polyline fill="none" points="-0.5,200.5 -0.5,100.5 99.5,100.5 		"/>
		<polyline fill="none" points="99.5,200.5 99.5,100.5 199.5,100.5 		"/>
		<polyline fill="none" points="199.5,200.5 199.5,100.5 299.5,100.5 		"/>
		<polyline fill="none" points="299.5,200.5 299.5,100.5 399.5,100.5 		"/>
		<polyline fill="none" points="399.5,200.5 399.5,100.5 499.5,100.5 		"/>
		<polyline fill="none" points="499.5,200.5 499.5,100.5 599.5,100.5 599.5,200.5 		"/>
		<polyline fill="none" points="-0.5,300.5 -0.5,200.5 99.5,200.5 		"/>
		<polyline fill="none" points="99.5,300.5 99.5,200.5 199.5,200.5 		"/>
		<polyline fill="none" points="199.5,300.5 199.5,200.5 299.5,200.5 		"/>
		<polyline fill="none" points="299.5,300.5 299.5,200.5 399.5,200.5 		"/>
		<polyline fill="none" points="399.5,300.5 399.5,200.5 499.5,200.5 		"/>
		<polyline fill="none" points="499.5,300.5 499.5,200.5 599.5,200.5 599.5,300.5 		"/>
		<polyline fill="none" points="-0.5,400.5 -0.5,300.5 99.5,300.5 		"/>
		<polyline fill="none" points="99.5,400.5 99.5,300.5 199.5,300.5 		"/>
		<polyline fill="none" points="199.5,400.5 199.5,300.5 299.5,300.5 		"/>
		<polyline fill="none" points="299.5,400.5 299.5,300.5 399.5,300.5 		"/>
		<polyline fill="none" points="399.5,400.5 399.5,300.5 499.5,300.5 		"/>
		<polyline fill="none" points="499.5,400.5 499.5,300.5 599.5,300.5 599.5,400.5 		"/>
		<polyline fill="none" points="99.5,500.5 -0.5,500.5 -0.5,400.5 99.5,400.5 		"/>
		<polyline fill="none" points="199.5,500.5 99.5,500.5 99.5,400.5 199.5,400.5 		"/>
		<polyline fill="none" points="299.5,500.5 199.5,500.5 199.5,400.5 299.5,400.5 		"/>
		<polyline fill="none" points="399.5,500.5 299.5,500.5 299.5,400.5 399.5,400.5 		"/>
		<polyline fill="none" points="499.5,500.5 399.5,500.5 399.5,400.5 499.5,400.5 		"/>
		<rect x="499.5" y="400.5" fill="none" width="100" height="100"/>
	</g>
</g>
</svg>
