<?xml version="1.0" encoding="utf-8"?>
<!-- Generator: Adobe Illustrator 16.0.0, SVG Export Plug-In . SVG Version: 6.00 Build 0)  -->
<!DOCTYPE svg PUBLIC "-//W3C//DTD SVG 1.1//EN" "http://www.w3.org/Graphics/SVG/1.1/DTD/svg11.dtd">
<svg version="1.1" id="Layer_1" xmlns="http://www.w3.org/2000/svg" xmlns:xlink="http://www.w3.org/1999/xlink" x="0px" y="0px"
	 width="5600px" height="600px" viewBox="0 0 5600 600" enable-background="new 0 0 5600 600" xml:space="preserve">
<g id="XMLID_2_">
	<g>
		<rect x="700" y="500" fill="#FFFFFF" width="100" height="100"/>
		<rect x="700" fill="#FFFFFF" width="100" height="100"/>
		<rect x="600" y="400" fill="#FFFFFF" width="100" height="100"/>
		<rect x="600" y="100" fill="#FFFFFF" width="100" height="100"/>
		<rect x="600" fill="#FFFFFF" width="100" height="100"/>
		<rect x="500" y="300" fill="#FFFFFF" width="100" height="100"/>
		<rect x="500" y="200" fill="#FFFFFF" width="100" height="100"/>
		<rect x="500" y="100" fill="#FFFFFF" width="100" height="100"/>
		<rect x="400" y="300" fill="#FFFFFF" width="100" height="100"/>
		<rect x="400" y="200" fill="#C87237" width="100" height="100"/>
		<rect x="400" y="100" fill="#C87237" width="100" height="100"/>
		<rect x="300" y="300" fill="#FFFFFF" width="100" height="100"/>
		<rect x="300" y="200" fill="#C87237" width="100" height="100"/>
		<rect x="200" y="300" fill="#FFFFFF" width="100" height="100"/>
		<rect x="200" y="200" fill="#FFFFFF" width="100" height="100"/>
		<rect x="200" y="100" fill="#C87237" width="100" height="100"/>
		<rect x="100" y="400" fill="#FFFFFF" width="100" height="100"/>
		<rect x="100" y="200" fill="#FFFFFF" width="100" height="100"/>
		<rect y="500" fill="#FFFFFF" width="100" height="100"/>
		<rect y="200" fill="#FFFFFF" width="100" height="100"/>
	</g>
	<g>
	</g>
</g>
<g id="XMLID_1_">
	<g>
		<rect x="1400" y="500" fill="#FFFFFF" width="100" height="100"/>
		<rect x="800" y="400" fill="#FFFFFF" width="100" height="100"/>
		<rect x="1500" fill="#FFFFFF" width="100" height="100"/>
		<rect x="1400" y="400" fill="#FFFFFF" width="100" height="100"/>
		<rect x="1400" y="100" fill="#FFFFFF" width="100" height="100"/>
		<rect x="1400" fill="#FFFFFF" width="100" height="100"/>
		<rect x="1300" y="300" fill="#FFFFFF" width="100" height="100"/>
		<rect x="1300" y="200" fill="#FFFFFF" width="100" height="100"/>
		<rect x="1300" y="100" fill="#FFFFFF" width="100" height="100"/>
		<rect x="1200" y="300" fill="#FFFFFF" width="100" height="100"/>
		<rect x="1200" y="200" fill="#C87237" width="100" height="100"/>
		<rect x="1200" y="100" fill="#C87237" width="100" height="100"/>
		<rect x="1100" y="300" fill="#FFFFFF" width="100" height="100"/>
		<rect x="1100" y="200" fill="#C87237" width="100" height="100"/>
		<rect x="1000" y="300" fill="#FFFFFF" width="100" height="100"/>
		<rect x="1000" y="200" fill="#FFFFFF" width="100" height="100"/>
		<rect x="1000" y="100" fill="#C87237" width="100" height="100"/>
		<rect x="900" y="400" fill="#FFFFFF" width="100" height="100"/>
		<rect x="900" y="200" fill="#FFFFFF" width="100" height="100"/>
		<rect x="800" y="200" fill="#FFFFFF" width="100" height="100"/>
	</g>
	<g>
	</g>
</g>
<g id="XMLID_4_">
	<g>
		<rect x="1600" y="200" fill="#FFFFFF" width="100" height="100"/>
		<rect x="1800" y="400" fill="#FFFFFF" width="100" height="100"/>
		<rect x="2100" y="500" fill="#FFFFFF" width="100" height="100"/>
		<rect x="2100" y="400" fill="#FFFFFF" width="100" height="100"/>
		<rect x="2300" fill="#FFFFFF" width="100" height="100"/>
		<rect x="2200" y="100" fill="#FFFFFF" width="100" height="100"/>
		<rect x="2200" fill="#FFFFFF" width="100" height="100"/>
		<rect x="2100" y="300" fill="#FFFFFF" width="100" height="100"/>
		<rect x="2100" y="200" fill="#FFFFFF" width="100" height="100"/>
		<rect x="2100" y="100" fill="#FFFFFF" width="100" height="100"/>
		<rect x="2000" y="300" fill="#FFFFFF" width="100" height="100"/>
		<rect x="2000" y="200" fill="#C87237" width="100" height="100"/>
		<rect x="2000" y="100" fill="#C87237" width="100" height="100"/>
		<rect x="1900" y="300" fill="#FFFFFF" width="100" height="100"/>
		<rect x="1900" y="200" fill="#C87237" width="100" height="100"/>
		<rect x="1800" y="300" fill="#FFFFFF" width="100" height="100"/>
		<rect x="1800" y="200" fill="#FFFFFF" width="100" height="100"/>
		<rect x="1800" y="100" fill="#C87237" width="100" height="100"/>
		<rect x="1700" y="400" fill="#FFFFFF" width="100" height="100"/>
		<rect x="1700" y="200" fill="#FFFFFF" width="100" height="100"/>
	</g>
	<g>
	</g>
</g>
<g id="XMLID_3_">
	<g>
		<rect x="2400" y="100" fill="#FFFFFF" width="100" height="100"/>
		<rect x="2900" y="100" fill="#FFFFFF" width="100" height="100"/>
		<rect x="3100" y="100" fill="#FFFFFF" width="100" height="100"/>
		<rect x="3000" y="100" fill="#FFFFFF" width="100" height="100"/>
		<rect x="3000" y="200" fill="#FFFFFF" width="100" height="100"/>
		<rect x="2600" y="400" fill="#FFFFFF" width="100" height="100"/>
		<rect x="2700" y="400" fill="#FFFFFF" width="100" height="100"/>
		<rect x="2800" y="500" fill="#FFFFFF" width="100" height="100"/>
		<rect x="2900" y="400" fill="#FFFFFF" width="100" height="100"/>
		<rect x="2900" y="300" fill="#FFFFFF" width="100" height="100"/>
		<rect x="2900" y="200" fill="#FFFFFF" width="100" height="100"/>
		<rect x="2800" y="300" fill="#FFFFFF" width="100" height="100"/>
		<rect x="2800" y="200" fill="#C87237" width="100" height="100"/>
		<rect x="2800" y="100" fill="#C87237" width="100" height="100"/>
		<rect x="2700" y="300" fill="#FFFFFF" width="100" height="100"/>
		<rect x="2700" y="200" fill="#C87237" width="100" height="100"/>
		<rect x="2600" y="300" fill="#FFFFFF" width="100" height="100"/>
		<rect x="2600" y="200" fill="#FFFFFF" width="100" height="100"/>
		<rect x="2600" y="100" fill="#C87237" width="100" height="100"/>
		<rect x="2500" y="200" fill="#FFFFFF" width="100" height="100"/>
	</g>
	<g>
	</g>
</g>
<g id="XMLID_7_">
	<g>
		<rect x="3200" y="100" fill="#FFFFFF" width="100" height="100"/>
		<rect x="3700" y="100" fill="#FFFFFF" width="100" height="100"/>
		<rect x="3900" y="100" fill="#FFFFFF" width="100" height="100"/>
		<rect x="3800" y="200" fill="#FFFFFF" width="100" height="100"/>
		<rect x="3400" y="400" fill="#FFFFFF" width="100" height="100"/>
		<rect x="3500" y="500" fill="#FFFFFF" width="100" height="100"/>
		<rect x="3600" y="400" fill="#FFFFFF" width="100" height="100"/>
		<rect x="3700" y="400" fill="#FFFFFF" width="100" height="100"/>
		<rect x="3800" y="100" fill="#FFFFFF" width="100" height="100"/>
		<rect x="3700" y="300" fill="#FFFFFF" width="100" height="100"/>
		<rect x="3700" y="200" fill="#FFFFFF" width="100" height="100"/>
		<rect x="3600" y="300" fill="#FFFFFF" width="100" height="100"/>
		<rect x="3600" y="200" fill="#C87237" width="100" height="100"/>
		<rect x="3600" y="100" fill="#C87237" width="100" height="100"/>
		<rect x="3500" y="300" fill="#FFFFFF" width="100" height="100"/>
		<rect x="3500" y="200" fill="#C87237" width="100" height="100"/>
		<rect x="3400" y="300" fill="#FFFFFF" width="100" height="100"/>
		<rect x="3400" y="200" fill="#FFFFFF" width="100" height="100"/>
		<rect x="3400" y="100" fill="#C87237" width="100" height="100"/>
		<rect x="3300" y="200" fill="#FFFFFF" width="100" height="100"/>
	</g>
	<g>
	</g>
</g>
<g id="XMLID_6_">
	<g>
		<rect x="4600" y="300" fill="#FFFFFF" width="100" height="100"/>
		<rect x="4500" y="400" fill="#FFFFFF" width="100" height="100"/>
		<rect x="4200" y="500" fill="#FFFFFF" width="100" height="100"/>
		<rect x="4200" y="400" fill="#FFFFFF" width="100" height="100"/>
		<rect x="4700" fill="#FFFFFF" width="100" height="100"/>
		<rect x="4600" y="100" fill="#FFFFFF" width="100" height="100"/>
		<rect x="4600" fill="#FFFFFF" width="100" height="100"/>
		<rect x="4500" y="300" fill="#FFFFFF" width="100" height="100"/>
		<rect x="4500" y="200" fill="#FFFFFF" width="100" height="100"/>
		<rect x="4500" y="100" fill="#FFFFFF" width="100" height="100"/>
		<rect x="4400" y="300" fill="#FFFFFF" width="100" height="100"/>
		<rect x="4400" y="200" fill="#C87237" width="100" height="100"/>
		<rect x="4400" y="100" fill="#C87237" width="100" height="100"/>
		<rect x="4300" y="300" fill="#FFFFFF" width="100" height="100"/>
		<rect x="4300" y="200" fill="#C87237" width="100" height="100"/>
		<rect x="4200" y="300" fill="#FFFFFF" width="100" height="100"/>
		<rect x="4200" y="200" fill="#FFFFFF" width="100" height="100"/>
		<rect x="4200" y="100" fill="#C87237" width="100" height="100"/>
		<rect x="4100" y="200" fill="#FFFFFF" width="100" height="100"/>
		<rect x="4000" y="200" fill="#FFFFFF" width="100" height="100"/>
	</g>
	<g>
	</g>
</g>
<g id="XMLID_5_">
	<g>
		<rect x="4800" y="200" fill="#FFFFFF" width="100" height="100"/>
		<rect x="4900" y="500" fill="#FFFFFF" width="100" height="100"/>
		<rect x="4900" y="400" fill="#FFFFFF" width="100" height="100"/>
		<rect x="5500" y="400" fill="#FFFFFF" width="100" height="100"/>
		<rect x="5400" y="400" fill="#FFFFFF" width="100" height="100"/>
		<rect x="5500" fill="#FFFFFF" width="100" height="100"/>
		<rect x="5400" y="100" fill="#FFFFFF" width="100" height="100"/>
		<rect x="5400" fill="#FFFFFF" width="100" height="100"/>
		<rect x="5300" y="300" fill="#FFFFFF" width="100" height="100"/>
		<rect x="5300" y="200" fill="#FFFFFF" width="100" height="100"/>
		<rect x="5300" y="100" fill="#FFFFFF" width="100" height="100"/>
		<rect x="5200" y="300" fill="#FFFFFF" width="100" height="100"/>
		<rect x="5200" y="200" fill="#C87237" width="100" height="100"/>
		<rect x="5200" y="100" fill="#C87237" width="100" height="100"/>
		<rect x="5100" y="300" fill="#FFFFFF" width="100" height="100"/>
		<rect x="5100" y="200" fill="#C87237" width="100" height="100"/>
		<rect x="5000" y="300" fill="#FFFFFF" width="100" height="100"/>
		<rect x="5000" y="200" fill="#FFFFFF" width="100" height="100"/>
		<rect x="5000" y="100" fill="#C87237" width="100" height="100"/>
		<rect x="4900" y="200" fill="#FFFFFF" width="100" height="100"/>
	</g>
	<g>
	</g>
</g>
</svg>
