<?xml version="1.0" encoding="utf-8"?>
<!-- Generator: Adobe Illustrator 16.0.0, SVG Export Plug-In . SVG Version: 6.00 Build 0)  -->
<!DOCTYPE svg PUBLIC "-//W3C//DTD SVG 1.1//EN" "http://www.w3.org/Graphics/SVG/1.1/DTD/svg11.dtd">
<svg version="1.1" id="Layer_1" xmlns="http://www.w3.org/2000/svg" xmlns:xlink="http://www.w3.org/1999/xlink" x="0px" y="0px"
	 width="800px" height="600px" viewBox="0 0 800 600" enable-background="new 0 0 800 600" xml:space="preserve">
<g id="XMLID_1_">
	<g>
		<rect x="0" y="0" fill="#FFFFFF" width="100" height="100"/>
		<rect x="0" y="100" fill="#FFFFFF" width="100" height="100"/>
		<rect x="0" y="200" fill="#FFFFFF" width="100" height="100"/>
		<rect x="0" y="300" fill="#FFFFFF" width="100" height="100"/>
		<rect x="0" y="400" fill="#FFFFFF" width="100" height="100"/>
		<rect x="0" y="500" fill="#FFFFFF" width="100" height="100"/>
		<rect x="100" y="0" fill="#FFFFFF" width="100" height="100"/>
		<rect x="100" y="100" fill="#FFFFFF" width="100" height="100"/>
		<rect x="100" y="200" fill="#FFFFFF" width="100" height="100"/>
		<rect x="100" y="300" fill="#FFFFFF" width="100" height="100"/>
		<rect x="100" y="400" fill="#FFFFFF" width="100" height="100"/>
		<rect x="100" y="500" fill="#FFFFFF" width="100" height="100"/>
		<rect x="300" y="0" fill="#FFFFFF" width="100" height="100"/>
		<rect x="300" y="100" fill="#FFFFFF" width="100" height="100"/>
		<rect x="300" y="200" fill="#FFFFFF" width="100" height="100"/>
		<rect x="300" y="300" fill="#FFFFFF" width="100" height="100"/>
		<rect x="300" y="500" fill="#FFFFFF" width="100" height="100"/>
		<rect x="400" y="0" fill="#FFFFFF" width="100" height="100"/>
		<rect x="400" y="300" fill="#FFFFFF" width="100" height="100"/>
		<rect x="400" y="500" fill="#FFFFFF" width="100" height="100"/>
		<rect x="500" y="0" fill="#FFFFFF" width="100" height="100"/>
		<rect x="500" y="300" fill="#FFFFFF" width="100" height="100"/>
		<rect x="500" y="400" fill="#FFFFFF" width="100" height="100"/>
		<rect x="500" y="500" fill="#FFFFFF" width="100" height="100"/>
		<rect x="600" y="0" fill="#FFFFFF" width="100" height="100"/>
		<rect x="600" y="300" fill="#FFFFFF" width="100" height="100"/>
		<rect x="600" y="500" fill="#FFFFFF" width="100" height="100"/>
		<rect x="700" y="0" fill="#FFFFFF" width="100" height="100"/>
		<rect x="700" y="100" fill="#FFFFFF" width="100" height="100"/>
		<rect x="700" y="200" fill="#FFFFFF" width="100" height="100"/>
		<rect x="700" y="300" fill="#FFFFFF" width="100" height="100"/>
		<rect x="700" y="500" fill="#FFFFFF" width="100" height="100"/>
	</g>
</g>
</svg>
